<?xml version="1.0" encoding="UTF-8"?>
<svg width="590" height="560" version="1.1" viewBox="0 0 590 560" xml:space="preserve" xmlns="http://www.w3.org/2000/svg" xmlns:cc="http://creativecommons.org/ns#" xmlns:dc="http://purl.org/dc/elements/1.1/" xmlns:rdf="http://www.w3.org/1999/02/22-rdf-syntax-ns#"><metadata><rdf:RDF><cc:Work rdf:about=""><dc:format>image/svg+xml</dc:format><dc:type rdf:resource="http://purl.org/dc/dcmitype/StillImage"/><dc:title/></cc:Work></rdf:RDF></metadata><path d="m286.85 4.0176c-0.60611-0.0027707-1.2937 0.054123-2.1504 0.18945-3.4266 0.54132-4.329-0.35957-8.6582 1.623-4.3319 1.984-5.4119 1.8038-8.4785 3.7891-3.0679 1.984-1.9848-1.8043-3.9688 1.2637-0.57732 0.89331-0.99557 1.6678-1.3516 2.3691-0.86931 1.7066-1.3405 2.9207-2.6191 3.9434-0.99731 0.79865-2.1074 1.1026-3.0527 1.6719-0.46666 0.28266-0.88753 0.6496-1.2422 1.1562-0.22132 0.31732-0.42017 0.67664-0.57617 1.1406-0.89997 2.7053-1.6214 3.0673-1.8027 7.3965-0.17866 4.3292-1.8024 9.7407-2.3437 12.086-0.484 2.0986-2.1179 3.4846-1.4219 7.7578 0.0813 0.50265 0.1859 1.0364 0.33789 1.623 1.4426 5.5919 1.4437 7.5763 1.625 11.547 0.15733 3.4639-0.92288 5.0042 0.48242 7.0215 0.20266 0.29199 0.45797 0.59602 0.7793 0.91602 0.052 0.05333 0.09192 0.092532 0.14258 0.14453 0.32799 0.32666 0.61891 0.62192 0.8789 0.89258 1.64 1.7053 2.0172 2.5038 1.8652 5.0957-0.036 0.64132-0.124 1.1337-0.22266 1.5391-0.19866 0.82798-0.44831 1.2669-0.45898 1.7148-7e-3 0.24799 0.06004 0.49961 0.24804 0.82226 0.10533 0.18 0.24694 0.37995 0.4336 0.61328 0.14399 0.17866 0.27365 0.333 0.40429 0.48633 1.1826 1.3853 1.8842 1.7687 3.0215 2.582 1.2626 0.89998 1.2634 0.71947 2.5273 1.8008 0.42266 0.36266 0.69355 0.62248 0.90821 0.86914 0.42799 0.49465 0.59423 0.93689 1.0742 2.0195 0.0787 0.17466 0.1659 0.36269 0.2539 0.55469 0.064 0.14133 0.13575 0.28693 0.20508 0.43359 0.26533 0.56132 0.55857 1.1636 0.86523 1.7676 0.53598 1.052 1.0958 2.088 1.5625 2.8359 0.90264 1.444 1.085 1.4444 1.625 2.707 0.54132 1.2626 0.36206 1.0802 1.082 4.3281 0.188 0.84398 0.37451 1.7489 0.5625 2.6582 0.188 0.90532 0.37523 1.8075 0.56055 2.6621 0.0493 0.22933 0.09972 0.45188 0.15039 0.67188 0.29466 1.312 0.59331 2.4637 0.89063 3.209 0.72132 1.804 0.90338 2.7055 1.4434 3.9668 0.54266 1.2626 0.90234 2.3457 0.90234 2.3457l0.35938 1.9863-27.059 13.168s-2.3438 1.2637-2.3438 0.54101c0-0.72132-0.54101-1.4434-0.54101-1.4434s-3.3474-2.4184-8.9473-5.0117c-0.80931-0.37332-1.6632-0.75097-2.5606-1.127-0.23599-0.0987-0.47546-0.19697-0.71679-0.29297-0.70665-0.28533-1.4355-0.56775-2.1875-0.84375-1.52-0.55732-3.1334-1.0863-4.832-1.5703-1.244-0.35466-2.532-0.68324-3.8613-0.97656-0.57865-0.12667-1.1592-0.2519-1.7539-0.36523-1.8066-0.34266-3.686-0.60383-5.6152-0.78516-2.1613-0.20133-4.3886-0.29571-6.6738-0.23438-2.7599 0.0747-5.6028 0.37876-8.4961 0.94141-0.78131 0.15333-1.5655 0.32364-2.3535 0.51563-0.19867 0.048-0.39509 0.10301-0.59375 0.15234-5.8892 1.516-11.951 4.1891-17.975 8.5156 0 0-1.2092-1.4533-3.0371-3.4199-0.32666-0.34933-0.66931-0.71385-1.0293-1.0898-2.9279-3.0559-6.9306-6.8289-10.285-8.5488-0.52532-0.26933-1.0368-0.49306-1.5234-0.65039 0 0-0.23235-0.09906-0.65234-0.23242-0.41599-0.13333-1.0218-0.30175-1.7871-0.45508-0.36666-0.0733-0.77167-0.14313-1.209-0.20313-0.30266-0.0413-0.62166-0.07936-0.95898-0.11132-4.8052-0.42932-12.689 0.54571-20.287 8.9375l-1.4434-1.2637 0.17969-1.9844s0.62345-3.983 0.80078-9.9668c0.20399-6.8798-0.18122-16.402-2.7852-25.568 0 0-2.5246-9.5635 1.4434-11.549l3.2461 2.5273 2.8887-1.8047 1.4434 0.72266 1.082 0.7207 1.4414 0.72266s0.72266 0.72204 1.8066 1.082c1.0813 0.36266 1.0801-0.72265 2.1641-0.36133 1.0813 0.35999 1.0828 0.001337 2.8867 0.36133 1.804 0.36266 1.8035-0.36133 3.2461-0.36133s0.7201-0.36071 2.5254-0.7207c1.8026-0.36132 1.8029-0.36206 5.4121-2.166 3.6066-1.804 5.4102-2.8867 5.4102-2.8867s0.72266-0.71948 1.084-1.8008c0.36133-1.084 0.7207-2.8887 0.7207-2.8887s1.0832-11.545-1.4434-20.926c0 0-1.0815-7.5784-19.482-12.629 0 0-11.546-4.3286-18.4-0.35938 0 0-11.184 3.6083-12.627 7.5762 0 0-4.2468 14.396-12.143 28.734-0.72932 1.324-1.4873 2.6484-2.2793 3.959-2.6186 4.3426-5.575 8.5554-8.8496 12.225 0 0-14.792 18.581-18.402 48.527 0 0-0.89916 5.9542-1.9805 7.2168 0 0-1.6252 5.5913 0.71875 8.8379 0 0 2.9945 8.8658 11.016 15.82 2.9519 2.5599 6.5769 4.8652 10.994 6.3691 0 0 1.5428 0.54479 3.2441 1.3848 0.46132 0.228 0.93526 0.48138 1.3926 0.74804 1.2093 0.70665 2.3024 1.5303 2.7598 2.377 0 0 2.2485 1.9052 6.3164 4.5625 4.1919 2.7373 10.317 6.2724 17.906 9.3496 0.12533 0.0507 0.24638 0.10167 0.37304 0.15234 0.45066 0.17999 0.90782 0.36112 1.3691 0.53711 1.2213 0.47066 2.4802 0.92534 3.7695 1.3613 1.8253 0.61999 3.716 1.201 5.668 1.7344 2.296 0.62398 4.6775 1.178 7.1348 1.6406 0.16267 0.0307 0.32295 0.06445 0.48828 0.09375 10.874 1.988 23.229 2.1586 36.35-1.3906 0 0 5.7713-2.348 8.4766 3.4238 0 0 0.2869 0.63081 0.82422 1.6894 0.41199 0.80798 0.97323 1.867 1.6719 3.0977 2.3159 4.0826 6.1413 10.017 11.033 14.697 0 0 4.6596 7.8138 7.4102 15.434 0.40532 1.1213 0.76898 2.2415 1.0703 3.3281 0 0 1.7877 4.5398 4.5449 10.318 0.17733 0.37332 0.37194 0.76321 0.55859 1.1445 1.4186 2.9199 3.0477 6.075 4.8184 9.1016 0 0 3.2453 6.6757 0 11.906l-0.32617 0.95312h15.322c2.4346 0 4.4102 1.9736 4.4102 4.4082v50.711c0 5.7759-1.786 11.009-5.3086 15.553-2.3613 3.0452-4.9005 5.2495-7.5938 6.6055-1.224 0.61865-2.4797 1.0602-3.7637 1.3242-0.82131 0.16933-1.6553 0.25981-2.502 0.28515-0.14133 4e-3 -0.28375 0.01367-0.42774 0.01367h-5.3906c0.08 1.0493 0.14046 2.1146 0.20312 3.1719v2.1465h-14.449l-3.543 5.4199-17.594 26.906-4.2812 6.543c1.3573 1.06 2.7384 2.3721 4.1504 3.916 2.1066 2.3013 4.2837 5.1375 6.5703 8.5801 0.40932 0.61998 0.79746 1.2013 1.1894 1.7812l6.6309 8.9121c0.81198 0.92664 1.5481 1.687 2.1894 2.2363 2.7493 2.3599 5.1563 4.4412 7.2402 6.2598l-6.4102-5.7754 3.0684-7.3809h4.127c-1.2618 5.6546-1.1622 10.359 0.19922 13.986l9.002 7.584 1.7363 0.64844c1.2536 0.20969 2.5968 0.32227 4.0391 0.32227 11.958 0 25.91-7.9383 30.77-17.568 1.6555-3.2806 1.454-5.3966-0.54883-7.0898-2.0562-1.5874-3.6418-2.2219-11.99-4.7617-8.5601-2.5398-11.517-3.8096-14.523-5.8203-3.9562-2.6456-4.6207-7.6201-1.8438-13.123 6.0879-12.064 23.644-21.482 39.941-21.482 7.1961 0 11.634 1.4813 15.85 5.291l3.9863-3.9141h3.3867l-7.1328 20.635h-3.7031c0.13326-5.9262-0.06807-8.2535-1.168-10.688-1.9377-4.3388-6.8989-6.8789-13.143-6.8789-9.9476 0-21.302 6.3494-25.146 13.969-2.0293 4.0214-0.71855 6.6671 4.2988 8.6777 2.2708 0.95243 5.9164 2.1152 16.959 5.6074 9.7746 3.0689 12.028 7.8328 7.7559 16.299-5.8555 11.604-20.844 21.501-36.07 24.717l-1.9844-0.55078c2.6186 0.81065 5.1416 1.5144 7.5469 2.0957l0.06445 0.01758 16.297 3.5176h-2.8672c0.58932 0.148 1.1884 0.30326 1.7617 0.44726 13.932 3.4879 23.441 5.3776 28.352 5.627 15.674 0.78665 16.657 1.5624 17.609 2.3184l0.375 0.29493 0.25976 0.40234c0.26399 0.41199 0.52464 0.80404 0.7793 1.1934 1.4973 2.28 2.8056 4.1612 3.9082 5.6172h199.5l68.525-104.79h-184.02c0.236-0.14533 0.38671-0.23828 0.38671-0.23828-7.6095-2.9e-4 -13.679-1.6723-18.523-4.4453h-16.635c-0.38399 0-0.74948-0.06423-1.1055-0.15625-1.896-0.49333-3.3027-2.2027-3.3027-4.252v-70.334c0-2.052 1.4068-3.7586 3.3027-4.252 0.35599-0.092 0.72148-0.15625 1.1055-0.15625h20.561c14.977-12.609 37.383-38.485 44.605-84.139 0 0 1.9808-2.705 3.6074-0.54102 0 0 7.5342 2.6945 18.477 2.5625 0.42399-5e-3 0.85317-0.01404 1.2852-0.02734 0.54932-0.0173 1.1091-0.04277 1.6758-0.07617 0.0987-5e-3 0.1975-0.00903 0.29883-0.01563 0.36265-0.024 0.72843-0.05068 1.0938-0.08008 0.10533-9e-3 0.20788-0.01804 0.31054-0.02734 3.8492-0.328 7.9987-1.0402 12.311-2.3242 1.848-0.55198 3.7271-1.209 5.623-1.9863 2.7613-1.1306 5.5574-2.5132 8.3613-4.2012 0.39999-0.24266 0.80374-0.49729 1.2051-0.75195 2.2733-1.44 4.541-3.0792 6.793-4.9512 0.35066-0.29198 0.70012-0.59187 1.0508-0.89453 0.81998-0.71065 1.6353-1.4526 2.4473-2.2246 2.5773-2.4493 5.1121-5.2242 7.5801-8.3574 1.7306-2.1986 3.4313-4.5643 5.0859-7.1309 0 0 3.9829-3.9261 8.2734-7.8594 3.6746-3.3679 7.5776-6.7389 9.4082-7.6562 0 0 11.182-7.9373 5.5898-17.318 0 0-2.392-3.5925-4.3613-9.0684-0.0267-0.0733-0.05142-0.14603-0.07812-0.2207-0.64798-1.832-1.248-3.8644-1.6934-6.043 0 0-5.2303-30.126-37.521-65.664 0 0-16.236-20.746-18.039-27.24 0 0-10.465-9.9214-24.174-7.2148l-16.234 1.2617-15.875 6.1348s-7.0352 0.36095-7.0352 5.7715l0.36133 18.039 0.53906 4.5098 0.54297 1.625s7.3e-4 0.17774 1.082 0.90039c1.0826 0.72265 0.53887 0.18237 2.8828 1.625 2.3479 1.4426 5.5938 3.4277 6.3164 3.4277 0.72132 0 2.1661 0.71906 3.2461 0.53906 1.0826-0.18 1.9867-0.53968 2.8867-0.17969 0.90531 0.35999 1.0841-0.1803 2.5254 0.17969 1.4426 0.36266 0.54411 0.72327 2.8867 0.36328 2.3453-0.36266 2.5261-0.72266 3.6074-0.72266 1.084 0 2.1644 0.1803 2.3457-0.90234 0.18133-1.0826 0.36369-2.166 1.2637-2.5273 0.90264-0.35866 0.54216-0.35712 2.5234-0.89844 1.9866-0.54265 1.8054 0.17896 3.248-1.2637 1.4426-1.444 1.4434-1.9854 2.166-3.248 0.72131-1.264 1.4434-0.36144 1.4434-2.1641 0-1.8053-0.72132-1.8057 0-2.707 0.72131-0.90398 0.17876-1.4417 1.4414-1.623 1.264-0.18 1.265-0.9007 1.9863-0.7207 0.71998 0.17866 0.71937-0.18 1.4434 0 0.72131 0.17866-0.18462-0.90357 0.72071 0.17773 0.90131 1.084 9.9229 7.7608 11.186 22.732 0 0 3.968 31.206 7.0332 42.572 0 0 0.60615 2.117-0.67382 2.4316-0.42932 0.10533-1.0766 0.00773-2.0312-0.44726 0 0-5.3683-2.2735-12.66-2.7695-2.8999-0.19733-6.1019-0.10836-9.3965 0.51562-2.4639 0.46666-4.974 1.2349-7.4473 2.4082-2.9373 1.3946-5.8151 3.3692-8.4844 6.0918-1e-3 1e-3 -9.1e-4 0-0.00391 0-0.14266 0.14667-0.29093 0.2784-0.43359 0.42773 0 0-1.5579 2.2062-3.8965 3.0781-1.5586 0.57999-3.4611 0.56816-5.4824-1.0918 0 0-5.6911-3.8051-14.854-4.1758-1.388-0.0547-2.8513-0.04011-4.3926 0.08789-4.0932 0.33733-8.7014 1.4258-13.668 3.707-1.14 0.52132-2.2922 1.0934-3.4668 1.748-0.0173 9e-3 -0.03599 0.0226-0.05469 0.0332-1.056 0.58931-2.1283 1.2517-3.2109 1.957-0.31467 0.20533-0.62737 0.39472-0.94336 0.60938 0 0-0.3702 0.23448-0.96485 0.5918-0.148 0.0893-0.30314 0.18373-0.48047 0.28906-0.30399 0.17999-0.65544 0.38308-1.0234 0.59375-0.21199 0.12266-0.42897 0.24309-0.6543 0.37109-1.3906 0.77864-3.0388 1.6372-4.5254 2.2559-0.36532 0.14933-0.71675 0.27916-1.0527 0.39649-0.42399 0.14533-0.81713 0.26065-1.1758 0.33398-0.53066 0.10933-0.98398 0.13769-1.3066 0.03906 0 0-1.2216-0.35377-3.1309-1.0938-1.5066-0.58399-3.4479-1.4089-5.5625-2.4902-5.4292-2.7773-12.005-7.2602-15.389-13.723-0.52399-0.99598-0.9637-2.0408-1.3184-3.1328-0.43332-1.3426-0.73528-2.7529-0.86328-4.2422-0.0413-0.48399-0.06882-0.97658-0.07422-1.4766l-0.35937-5.5898s0.35772-2.3438 0.17773-3.7891c-0.02-0.16133-0.03608-0.33572-0.05078-0.51172-0.06-0.66932-0.07878-1.4163-0.05078-2.0723 0.0307-0.71198 0.11787-1.3144 0.2832-1.5664 0.36266-0.53998 1.623-2.5248 1.9844-3.2461 0.35999-0.72132 1.262-2.3454 1.4434-3.248 0.18-0.90131 1.0817-2.7048 0.90039-3.6074-0.12933-0.65598 0.11859-1.6959 0.19726-2.7012 0.028-0.37466 0.03508-0.7439-0.01562-1.0879-0.18133-1.2626 0-3.6055 0-3.6055s1.6223-3.9705 0.90234-7.0371c-0.48265-2.0506-0.5627-4.0268-0.83203-6.9414-0.13466-1.444-0.31462-3.1126-0.61328-5.1445-0.044-0.31599-0.08431-0.60678-0.12695-0.91211-0.08671-0.62398-0.17269-1.2337-0.25-1.8203-0.62665-4.7359-1.0419-8.2502-2.8672-10.078-1.684-1.68-2.7193-3.1503-4.3633-5.1582-0.47332-0.57599-0.98648-1.1897-1.5918-1.875-1.2426-1.408-2.1033-2.6243-2.8633-3.7402-0.89731-1.3133-1.6546-2.4856-2.7266-3.6562-0.56532-0.61465-1.0703-1.2857-1.5703-1.959-1.264-1.6973-2.4965-3.3985-4.5644-4.1758-2.8866-1.0813-4.1499-1.0808-8.4805-1.8008-4.3266-0.72265-5.952-1.4447-9.5586-2.166-2.7059-0.54099-3.7891-1.0835-5.6074-1.0918zm49.969 36.479c0.0853 0.61465 0.15429 1.1367 0.15429 1.1367 0.0453 0.29999 0.08637 0.5903 0.125 0.87695 5.9478 1.044 11.209 2.0257 14.225 1.791-4.1306-1.4013-9.1587-2.866-14.504-3.8047zm125.99 5.1426c1.3053 3.8999 4.144 6.5367 7.3105 9.1406 5.3692 4.4159 10.997 9.085 15.203 14.797 5.4252 7.3665 5.1004 19.675 3.9551 28.416-1.1253 8.6038-12.077 8.5854-11.654 17.84-5.8492-8.0785-11.852-12.609-11.445-23.637 0.55598-15.148 1.2961-29.748-3.3691-44.15v-2.4062zm-125.09 2.4688c0.024 0.28133 0.04761 0.5557 0.07032 0.81836 0.15199 1.8186 0.26493 3.1295 0.54492 4.3281 0.236 1.0053 0.33007 2.0276 0.33008 3.0195 0 2.6239-0.66039 5.031-1.123 6.4043-0.0173 0.36532-0.03906 0.74146-0.03906 1.0508 0 0.29066 0.00743 0.52692 0.02343 0.65625 0.068 0.47732 0.09571 0.9383 0.09571 1.377 0 0.62932-0.05647 1.186-0.11914 1.6953 15.784 3.8412 30.051 11.014 42.723 17.051-9.5998-2.6853-19.712-9.4837-30.271-8.2891 9.2558 1.8786 18.32 3.9466 23.395 10.092 7.4318 0.77465 16.332 8.9961 25.25 14.861 3.4999 0.83996 6.2069 1.9913 7.9375 2.8633-2.1786-1.836-3.9088-3.5081-7.1914-5.9414 5.0012 0.136 8.9672 5.922 12.98 4.166-10.404-6.3652-17.06-8.2772-23.486-18.709 2.3759 2.5839 4.4877-1.0935 9.4902 0.75977-1.288-0.47865 0.72325 2.4615 0.89258 2.5762 4.4559 3.0639 15.219 6.8387 20.953 10.059 4.1679-2.2106 8.4418-3.3821 12.514-3.8848-4.5359-3.1813-8.8539-6.4383-12.812-9.8516-11.005-2.6226-25.528-16.796-35.547-17.713-3e-3 -1.1426 1.5005-0.8055 1.7031-1.7441-7.1172-2.1733-16.643-8.0383-23.588-8.5449 0.68132 0.81598 1.0295 2.2094 1.9668 2.748 5.0959 2.9013 13.609 1.2172 17.312 5.8438-14.276-4.6292-29.58-8.8187-41.516-11.613 1.5293-0.43332-0.38087-0.91682-0.88086-1.7168 6.9838 0.45732 10.099 3.736 15.527 0.69336-4.9705-1.4613-10.775-2.3934-17.135-3.0547zm-93.975 1.8398c-2.8266 0.97864-4.9899 2.1013-6.1445 3.3652-0.89731 0.98798-0.87652 3.4347-1.6738 4.332-0.48266 0.54265-2.0489 0.32797-2.5742 0.89062 0.21732-0.23333 2.0744 0.34643 1.7305 0.84375-3.7812 5.4639-16.019 6.0859-19.691 12.287 4.4986-0.73198 9.355-5.6045 12.879-4.4512-23.41 10.64-45.89 22.196-66.863 35.225 0.0493-1.5013-0.22183-2.6775-0.89648-3.4375-7.3998 3.7759-11.4 8.4943-18.928 10.516-0.0213 1.016-0.05179 2-0.09179 2.916 11.16-6.0852 21.041-2.301 21.943-1.9316 0.55599 0.19999 1.1194 0.43991 1.6914 0.72657 0.41866-0.25199 0.66016-0.40039 0.66016-0.4004 0 0-0.11383 0.21599-0.3125 0.58399 0.36399 0.19066 0.72771 0.3972 1.0957 0.61719 0.61065-0.34799 1.2154-0.70031 1.8301-1.043 0.012 0.51332-0.5796 1.0653-1.0449 1.5293 0.44132 0.28535 0.88289 0.58892 1.3242 0.90626 2.8426-1.64 5.4914-3.4641 7.4434-5.9707-2.9959-0.32266-4.7298 4.9721-6.8711 2.6602 5.2599-1.6773 6.6334-7.156 11.975-8.752-0.23199 2.328-3.6102 1.5875-4.2715 3.4941 5.4172 0.62798 12.916-8.3061 18.891-7.1074-1.1453 0.95998-2.3618 1.8931-3.6191 2.8145-1.7866 2.7093-5.6202 4.7174-9.7441 6.7773-4.3986 3.0826-8.2173 6.0864-9.9492 9.1797 0.192 0.16933 0.38551 0.33714 0.57617 0.50781 19.83-13.746 35.037-30.422 54.447-36.871 0.024-1.188-0.43115-1.8888-0.89648-2.5781 7.1172-2.0813 12.471-5.8893 19.014-8.5332-0.29599-0.99864-0.40039-1.9459-0.40039-2.8086 0-0.78131 0.07591-1.4957 0.14258-2.125 0.06399-0.60532 0.12304-1.1841 0.12304-1.8281 0-0.14666-0.00176-0.29722-0.00976-0.44922l-0.03516-0.79688c-0.14533-3.3026-0.22005-4.9617-1.416-9.6016-0.13333-0.51865-0.24003-1.009-0.33203-1.4863zm69.453 4.0879c3e-3 3.3892 0.22967 7.0279 0.375 10.701 0.0187 0.48132 0.03478 0.96523 0.05078 1.4492 8e-3 0.30399 0.0213 0.60812 0.0293 0.91211 0.12533 4.9132-0.0181 9.8043-1.1621 14.16-0.0213 0.082662-0.04501 0.16343-0.06641 0.24609-0.83998 3.0786-2.1852 5.8871-4.3144 8.2324-7.8305 8.6318-16.13 6.2098-24.863 9.2324-0.78798 0.27333-1.5758 0.58504-2.3691 0.95703 0.0213-0.15333 0.08279-0.27063 0.13476-0.39062 0.55998-1.268 2.6522-0.91453 3.3242-2.4238l1.4414-0.71875c11.124 0.89198 17.491-5.6757 21.336-14.578 0.112-0.25333 0.21561-0.5083 0.32227-0.76562 1.776-4.3279 2.987-9.1519 3.875-13.924 0.052-0.28666 0.10754-0.57405 0.1582-0.85938 0.0867-0.49065 0.16867-0.97819 0.25-1.4648 0.62799-3.7799 1.0825-7.4644 1.4785-10.766zm48.053 0.56641c-0.51132-0.006332-1.1681 0.22747-2.0508 0.82813 0.98264-0.25333 2.0772-0.30275 3.2305-0.21875-0.30266-0.35799-0.66837-0.60304-1.1797-0.60938zm-244.76 6.1348c-0.28666 0.86664-0.64397 1.7197-1.0293 2.5703-0.0653 0.14266-0.12217 0.28507-0.1875 0.42773-0.0427 0.148-0.07071 0.30442-0.10937 0.45508-0.97066 3.7599-1.0506 8.3197-1.7266 11.793-1.2226 6.2785-2.8585 12.193-4.7051 18.268-1.176 3.8759-3.4427 9.4028-2.8574 13.471 0.68132 4.7306 2.5256 2.808 5.3242 5.7266 3.0839 3.2186 4.7594 11.049 3.998 15.643-0.0507 0.30799-0.11477 0.60292-0.18946 0.87891-0.75996 2.8679-4.0287 6.4153-7.1699 7.2246-1.84 0.47466-3.6335 0.01581-4.8535-2.0762v2.4062c-2.5479-3.1626-6.2732-4.281-8.2012-8.2383-2.3439-4.8172-2.594-10.657-3.2246-15.859-1.0693-8.8651 3.8008-10.997 8.082-18.236 3.6012-6.0918 5.4368-13.034 8.6367-19.242 0.06-0.11733 0.12812-0.23423 0.18945-0.35156 0.71598-1.3546 1.5158-2.7065 2.3438-4.0625 1.484-2.4319 3.0293-4.8796 4.252-7.3809 0.0693-0.14 0.14427-0.27797 0.21094-0.41797 0.0427-0.15333 0.10178-0.29208 0.14844-0.44141 0.28533-0.91998 0.62304-1.7927 1.0684-2.5566zm167.17 2.2344c1.6536-0.064498 3.5156 0.45468 4.9082 1.1113-0.17065 0.25333-0.35868 0.46621-0.55468 0.6582-2.016 1.9906-5.2143 1.1406-7.8809 2.6992-0.04-0.16666-0.05525-0.30498-0.06055-0.43164-0.0333-0.66398 0.34302-0.88722 0.65235-1.6445h-0.72266c0.56065-1.68 2.0046-2.3281 3.6582-2.3926zm-36.816 8.5918c-7.2892 2.6279-14.218 6.1053-15.816 11.146 5.1212-3.1346 10.81-6.4723 17.057-9.6016-0.48265-0.51999-0.90557-1.0369-1.2402-1.5449zm86.146 9.2578c-0.0773 0.12133-0.15652 0.25128-0.22852 0.36328v0.02539c0 0.38932 0.02082 0.88113 0.07422 1.3145 0.044 0.35732 0.06613 0.72752 0.07813 1.1035 11.828 2.1159 23.202 5.47 33.977 9.9219-0.36132-0.33199-0.69623-0.67913-0.96289-1.0645-0.27866-0.40132 1.2277-0.87426 1.4023-0.68359-0.42399-0.45599-1.6953-0.28267-2.0859-0.72266-0.64666-0.72398-0.63016-2.7078-1.3555-3.5078-3.5692-3.9079-18.977-6.1233-30.898-6.75zm-83.533 0.57422c-0.72531 0.148-1.4179 0.24696-2.0606 0.26562 1.856 4.1066-7.1586 0.69122-10.285 5.2871 1.9173 0.35999 4.6448-2.7133 5.1621-0.91602-1.1386 0.87598-3.2013 0.84842-3.4199 2.623 3.9639-1.7026 7.8159-3.5144 11.646-5.3477-0.46932-0.66265-0.80831-1.3015-1.043-1.9121zm-20.148 1.3281c-3.8666 1.332-7.7294 2.6708-9.416 6.1387 1.804 0.02933 7.6241-3.3254 9.416-6.1387zm5.3379 5.9551c-2.5682-0.10131-5.1528 1.8181-6.0938 3.5391 4.4706 0.67732 5.9011-1.619 8.5957-2.6816-0.79131-0.56465-1.6459-0.82365-2.502-0.85742zm-20.75 3.7012c-1.4066 2.6266-9.3469 3.3307-6.8203 6.9746 0.93065-3.0706 4.8513-3.2181 6.8379-5.25 0.14 1.144-2.8583 3.237-0.81836 3.457 1.18-2.2346 2.0421-4.167 0.80078-5.1816zm11.252 3.3164c-5.3972 0.97464-7.2664 5.4009-11.125 7.8809 5.3052-1.0653 8.0744-4.6103 11.125-7.8809zm0.89258 3.4414c-1.0906 1.7746-4.8268 0.95997-5.1348 3.5039 0.0187 0.00302 0.03282 9.1e-4 0.04882 0.00391 1.7946-1.024 3.608-2.0179 5.4453-2.9766-0.028-0.2-0.13805-0.38192-0.35938-0.53125zm-22.398 1.9707c-2.1453 1.5973-5.3296 2.1835-6.8535 4.3848 1.5853 1.3666 8.4175-2.7835 6.8535-4.3848zm238.59 0.07617c1.0651 0.01311 2.1438 0.12884 3.1738 0.36133 2.3039 0.51865 4.3538 1.6238 5.4551 3.4824 0.128 0.21599 0.25218 0.4365 0.35351 0.67383-0.87998-0.14133-1.5935-0.12942-2.1894-0.02539-3.2306 0.56932-2.5431 4.2851-0.22852 6.2891-2.1773-1.068-5.4497-1.9598-8.543-2.0371-2.3399-0.0587-4.5795 0.34918-6.1621 1.5078 7.1892 0.42399 9.6523 3.3341 12.963 9.1406 3.2399 5.6865 0.32832 8.3011-2.8223 13.041-0.50798 0.76398-1.0203 1.576-1.5176 2.4746-1.496 2.7053-3.1745 5.0038-5.2305 6.7598-1.0506 0.89598-2.2053 1.6449-3.4746 2.2422-0.48797 0.22933-0.98506 0.44172-1.5117 0.62305-0.25199 0.0867-0.51726 0.16166-0.78125 0.23632-0.42266 0.12267-0.86114 0.23285-1.3145 0.32618-0.56799 0.116-1.1498 0.21263-1.7578 0.27929-0.43199 0.0467-0.87026 0.08355-1.3223 0.10352-4.1759 0.18932-14.003-1.292-14.543-6.2559l0.39257 3.1328 0.08789 0.7168c-0.65597-0.17599-1.2575-0.38023-1.8281-0.60156-2.4706-0.96264-4.1709-2.3395-5.2402-3.9941-0.36532-0.56266-0.64649-1.158-0.86915-1.7793-0.7533-2.092-0.75672-4.4768-0.1914-6.9688 0.0893-0.39732 0.19908-0.7979 0.3164-1.1992 0.27999-0.94931 0.62698-1.9073 1.043-2.8633 0.99865-2.2986 2.3604-4.5812 3.9297-6.7012 0.30133-0.40799 0.6137-0.80909 0.92969-1.2051 0.91331-1.136 1.8778-2.2066 2.8711-3.1973 1.5826-1.5746 3.2311-2.9335 4.8457-3.9668 1.152-0.73465 2.2853-1.3098 3.3613-1.6777 3.4092-1.164 6.1148-1.4869 9.1387-3.7441 0.38399-0.28533 0.73813-0.59674 1.0781-0.91406 0.42133-0.39066 0.82515-0.7909 1.2305-1.1856 0.98798-0.95465 2.0054-1.853 3.4414-2.3476 1.405-0.48499 3.1409-0.7484 4.916-0.72657zm-297.19 2.2949c-1.6466 0.0627-2.8065 0.70092-3.4531 1.4902 0.0187 0.79465 0.02734 1.5754 0.02734 2.3301 0 0.172-0.0029 0.328-0.0039 0.5 0.01001 0.00748 0.01852 0.01849 0.02929 0.02734 0.84632-1.7262 3.7989-1.4033 3.4004-4.3476zm74.266 0.10937c-1.472 0.28799-2.9626 1.1023-3.3066 1.9902 1.0933-0.67596 2.196-1.3396 3.3066-1.9902zm-10.518 3.0977c-2.6172-0.0203-5.0504 2.1373-5.8867 4.7773 3.8572-0.20533 5.815-2.2679 7.7109-4.3945-0.60623-0.25749-1.2202-0.37813-1.8242-0.38281zm176.93 7.125c1.153-0.018 2.315 0.02661 3.4863 0.14062 3.2186 0.312 7.075 0.72434 9.9336 2.4043-2.1293 1.7373-3.5673 3.7744-4.7793 5.9863-0.77998 1.4213-1.4719 2.9132-2.1719 4.4531-0.14666 0.32399-0.29598 0.64467-0.44531 0.97266-4e-3 9e-3 -0.00772 0.01739-0.01172 0.02539-0.67065 1.46-1.3545 2.672-2.0918 3.752-0.45599 0.66665-0.93093 1.2812-1.4336 1.8691-1.4493 1.7-3.1307 3.1814-5.252 5.0547-1.492 1.3173-2.8056 2.7389-3.9883 4.2402-0.25733 0.32666-0.49944 0.66144-0.7461 0.9961-4.7186 6.4132-7.3345 14.105-11.26 21.236-2.4239 4.4066-5.2635 9.2153-8.9141 12.506-0.57198 0.51466-1.1641 0.98712-1.7734 1.4258-1.7693 1.276-3.674 2.2738-5.6152 3.2578-1.864 0.94131-3.7582 1.8747-5.6035 3.0293-4e-3 3e-3 -0.00742 0.00606-0.01172 0.00976-3.2012 2.0093-5.5138 5.0312-8.2324 7.3965-0.65865 0.57199-1.332 1.1186-2.0586 1.5879-1.2266 0.79465-2.534 1.0816-3.834 1.2656-2.7346 0.38933-5.4363 0.31939-7.2656 3.5566-2.8146 4.9879 0.04975 8.5148-6.5781 11.664-4.1532 1.972-11.716 2.8465-14.457-1.4414h-2.4024c-6.9678-3.9332-15.762-17.307-10.621-25.121 8.3491-12.693 27.838-15.108 37.076-27.436 6.1812-8.2491 11.413-15.791 18.373-22.471 1.7493-1.6786 3.602-3.3057 5.6152-4.875 0.46133-0.36 0.93746-0.71503 1.4121-1.0684 0.38933-0.28799 0.78556-0.57281 1.1856-0.85547 0.23466-0.16666 0.46898-0.33334 0.70898-0.5 0.19999-0.13733 0.38975-0.2793 0.59375-0.41797 0.56399-0.38132 1.1402-0.76454 1.7148-1.1445 0.48932-0.32399 0.98448-0.64485 1.4805-0.96485 3.1439-2.036 6.4319-3.9928 9.8398-5.6621 0.77598-0.37999 1.5597-0.74318 2.3477-1.0898 1.876-0.82531 3.7859-1.5526 5.7285-2.1406 0.54265-0.16266 1.0842-0.3196 1.6309-0.46093 1.6413-0.42532 3.3049-0.75055 4.9902-0.94922 1.134-0.13533 2.2767-0.21443 3.4297-0.23242zm114.5 0.6582c-2.116 5.9865 7.0362 4.9005 4.8242 12.098-1.2906 4.2012-6.1713 8.243-10.031 9.6523-0.43332 0.156-0.82756 0.27801-1.2129 0.38867-1.84 0.52399-3.2422 0.66022-5.1328 1.8535-1.8413 1.1613-2.4993 3.0813-4.7246 3.3359-1.024-2.364 1.2424-6.5596 4.293-10.381 2.2586-2.8319 4.9488-5.4553 7.0527-6.9766 0.43733-0.31465 0.84472-0.57768 1.2207-0.79101 0.02401-0.0107 0.04241-0.02316 0.06641-0.03516 0.34266-0.18933 0.65761-0.33388 0.93359-0.42187l0.00391-0.00391c0.0213-4e-3 0.04371-0.01674 0.06641-0.02344 0.46132-0.66532 0.76204-1.4772 0.99804-2.3398 0.59065-2.1786 0.71994-4.7208 1.6426-6.3555zm-311.93 0.60156c-5.3519 0.71598-7.1001 3.3447-10.555 6.502 0.14933 0.15733 0.3046 0.31871 0.44727 0.4707 1.6813-1.012 3.4006-1.9297 5.1445-2.7617 1.724-1.336 3.3963-2.7203 4.9629-4.2109zm-32.002 7.9297c0.19333 0.00616 0.38675 0.02636 0.58008 0.06836 0.052 0.0107 0.09254 0.0277 0.14453 0.04102 0.36 0.08669 0.67303 0.19879 0.95703 0.32812 0.25999 0.11733 0.49522 0.24911 0.69922 0.39844 2.2826 1.6693 1.2298 5.142 2.0391 7.8086 1.0173 3.3626 3.7472 5.2894 6.6484 7.168 0.29066 0.18666 0.57973 0.37645 0.87305 0.56445 1.208 0.77731 2.4214 1.5713 3.5254 2.4766 0.10133 0.0827 0.20273 0.15499 0.30273 0.23632 0.56398 0.45333 1.1287 0.88036 1.6953 1.291 2.7159 1.968 5.4922 3.5047 8.4668 5.0273 0.81998 0.41732 1.6454 0.83568 2.5 1.2637-2.4266 4.6746-4.699 5.8177-8.4082 5.3457v0.00195c-0.30799-0.0387-0.63029-0.09238-0.96094-0.15234-0.57466-0.10533-1.1861-0.24163-1.8301-0.4043-0.55866-0.13866-1.1353-0.29151-1.7539-0.46484-1.4346-0.40265-2.9625-1.0466-4.5078-1.668-2.0066-0.80798-4.0436-1.5767-5.9648-1.7207-0.04-3e-3 -0.07475-9.1e-4 -0.10938-0.00391-2.5519-0.15733-4.6776 0.80585-7.2148 0.86719-6.7638 0.16532-9.7051-5.5223-9.5664-11.688 0.0973-4.3026 1.6961-8.836 4.5547-11.781 0.66798-0.68932 1.3979-1.2965 2.1992-1.7871 0.0293-0.048 0.06445-0.09009 0.09375-0.13672 0.43998-0.70799 1.0282-1.3716 1.7148-1.9062 0.81598-0.63599 1.7668-1.0636 2.7441-1.1543 0.192-0.01735 0.3848-0.02569 0.57813-0.01953zm340.92 0.63086-1.2012 0.90039c0.28267-0.13333 0.52272-0.301 0.74805-0.48633 0.024-0.0173 0.04241-0.03804 0.06641-0.05664 0.13333-0.11466 0.26939-0.22942 0.38672-0.35742zm-370.89 0.17969c2.9519 2.0506 2.5855 6.2341 1.1855 10.389-0.27599 0.81998-0.59104 1.6356-0.92969 2.4356-1.2133 2.8653-2.7195 5.5075-3.7168 7.1621 0.16133-1.2653 0.39411-2.5031 0.66211-3.7324 0.0973-0.44399 0.19874-0.88743 0.30273-1.3301 1.14-4.8026 2.6534-9.504 2.4961-14.924zm69.285 11.111c0.66944 0.00283 1.2986 0.03428 1.7969 0.11328 0.12666 0.0187 0.24685 0.04306 0.35351 0.06836 0.56932 0.13999 1.1045 0.33946 1.6191 0.57812 0.31332 0.14399 0.61417 0.30776 0.91016 0.48242 2.6959 1.6013 4.7198 4.3717 7.0371 6.5996 0.056 0.0547 0.11259 0.11072 0.16992 0.16406 0.46265 0.43732 0.92273 0.87518 1.3867 1.3125 1.4573 1.38 2.9145 2.7544 4.3984 4.0664 1.8186 1.6106 3.6726 3.127 5.6152 4.4336 1.7866 1.204 3.6473 2.2236 5.6152 2.9902 3.7559 1.4586 7.907 1.9731 12.715 0.92383 4.4626-0.97464 11.024-5.209 15.391-1.7051 2.0933 1.68 9.7207 8.4758 15.229 14.402 0.0213 0.0227 0.0411 0.04241 0.0625 0.06641 1.8106 1.952 3.3877 3.8089 4.457 5.3516 0.59999-2.4159 1.1078-4.8121 1.5371-7.0801 0.0293-0.14533 0.05599-0.29412 0.08399-0.43945 0.95463-5.1092 1.5113-9.4933 1.8086-11.781 1.14 4.3266 0.29595 9.387-0.33203 13.908-8e-3 0.0493-0.01619 0.09986-0.02149 0.14649-0.0373 0.27732-0.07926 0.55613-0.11523 0.82812-0.68665 5.2159 0.06326 11.154-1.9141 16.115-1.7893 4.4932-6.3504 9.217-9.7383 12.52-0.39068 0.37999-1.0106 0.87582-1.7266 1.3691-0.116 0.0827-0.23281 0.16281-0.35547 0.24414-0.11066 0.1-0.23485 0.17053-0.35351 0.25586-0.284 0.20666-0.58317 0.37963-0.89649 0.51562-0.10134 0.044-0.19421 0.10001-0.29687 0.13868-0.0987 0.0493-0.20141 0.09461-0.30274 0.14257-0.84398 0.40932-1.6882 0.7122-2.4082 0.76954-0.32665 0.15466-0.62734 0.34444-0.88867 0.59374-0.42932 0.40934-0.75248 0.98263-0.89648 1.8359-1.1773-1.6893-3.4973-4.6236-6.3106-7.9102-5.8598-6.8478-13.861-15.23-18.168-17.123-2.5026-1.0973-4.6373-1.3077-6.5586-1.709-0.72798-0.15066-1.4237-0.335-2.0957-0.59766-0.76532-0.30132-1.5014-0.70718-2.2188-1.3125-0.232-0.19599-0.46207-0.4143-0.6914-0.6543-0.20399-0.21466-0.40671-0.44589-0.60938-0.69922-7e-3 -9e-3 -0.01544-0.02055-0.02344-0.03125-0.46666-0.59066-0.93054-1.2896-1.3945-2.1309-1.36-2.4733-2.7853-4.8349-4.1973-7.1855-2.6119-4.3386-5.1806-8.6262-7.2285-13.439-0.50932-1.1986-1.2167-2.4908-2.0566-3.8027-0.19466-0.29999-0.38833-0.59968-0.59766-0.90234-0.30133-0.44132-0.61989-0.8797-0.94921-1.3184-0.14933-0.19732-0.29785-0.39386-0.45118-0.58985-1.92-2.4533-4.2186-4.7865-6.5879-6.5078-0.26266-0.19066-0.52373-0.36893-0.78906-0.54492-0.30932-0.20666-0.61965-0.3968-0.93164-0.57813-0.89598-0.52666-1.7906-0.96254-2.668-1.2559v-1.4434c0.217 0.04298 2.5796-0.20187 4.5879-0.19335zm309.68 16.865c-1.6306 1.5053-3.3242 3.1067-4.9668 4.6934 24.742 22.395 35.424 55.936 47.213 88.283-2.9453-19.704-5.6425-43.835-14.432-57.609-7.7905-12.214-19.621-22.441-27.814-35.367zm-40.699 4.457c0.31066 0 0.62212-0.00137 0.93945 0.01563-0.18533 0.16-0.35907 0.31656-0.53906 0.47656-1.9186 1.676-3.6022 3.2893-5.2168 4.752-0.0533 0.048-0.10683 0.09462-0.16016 0.14258-0.08 0.0747-0.16281 0.14675-0.24414 0.21875-0.45732 0.40666-0.90924 0.8036-1.3652 1.1836-0.13466 0.11466-0.27353 0.22981-0.4082 0.3418-0.36132 0.29066-0.71669 0.57567-1.082 0.84766-2.2906 1.716-4.7228 2.9751-7.7734 3.5391-0.12533 0.024-0.24772 0.05031-0.37305 0.07031-1.792 0.292-3.7899 0.35656-6.1191 0.11524-1.8666-0.192-3.7157-0.70808-5.5703-1.1641-1.9026-0.46799-3.8097-0.85325-5.7363-0.78125-0.15866 7e-3 -0.31656-0.00418-0.47656 0.00782-1.628 0.12933-3.3056 0.79124-4.9082 1.4766-0.31065 0.13466-0.61973 0.26644-0.92773 0.39844-0.71864 0.31199-1.4188 0.61113-2.0801 0.84179 0.31199-0.34933 0.64925-0.71023 1.0039-1.0742 0.44132-0.45066 0.91683-0.90419 1.4102-1.3535 1.2986-1.18 2.7483-2.302 4.2402-3.166 0.38932-0.22399 0.78121-0.42405 1.1719-0.60937 0.35332-0.168 0.70661-0.31208 1.0586-0.44141 0.26266-0.0947 0.52392-0.20144 0.78125-0.27344 1.1933-0.67198 2.5201-1.0181 3.9121-1.1914 1.9173-0.23733 3.9533-0.14067 5.9492-0.05664 0.78799 0.032 1.5655 0.061 2.3281 0.0664 0.86931 4e-3 1.7168-0.01995 2.5234-0.11328 1.7746-0.204 3.4632-0.64469 5.1191-1.166 0.65065-0.20533 1.2987-0.41991 1.9453-0.64258 0.78798-0.27066 1.5765-0.54717 2.3672-0.8125 0.15333-0.0507 0.30431-0.09973 0.45898-0.15039 2.4919-0.82265 5.0209-1.494 7.7715-1.498zm35.102 0.8418c-0.41999 0.40799-0.83749 0.81547-1.2441 1.2168-1.9093 2.9146-3.8737 5.583-5.875 8.043 1.9386 2.4839 3.896 4.9566 5.8906 7.3965-1.2733 0.17333-0.76821 2.0924-0.82422 3.4551 17.466 20.827 30.731 55.621 32.395 91.953l-9.5195-0.03125c-2.7999 9e-3 -5.3212 0.86498-7.1719 2.2383-2.8106 2.0733-4.0221 4.8271-4.6367 6.8457-0.40265 1.3613-0.55647 2.4742-0.61914 3.1582-0.14399-1.2466-0.37649-2.4003-0.75781-3.4043 0.08-2.9519 0.06615-5.7728-0.19922-7.9394-0.16533-1.3346-0.44101-2.6697-0.76367-4.0137 5e-3 -0.0293 0.00772-0.0625 0.01172-0.0918-0.016-0.0173-0.02948-0.03674-0.04688-0.05273-0.69332-2.8679-1.5903-5.7766-2.1543-8.8125-0.20666-2.5266-0.39433-4.9766-0.98632-6.5606-1.3773-7.6331-3.952-15.466-4.668-23.16 0.85598 0.31466 1.4237 0.91074 1.373 2.1094 2.0626-1.3986-0.90643-3.6618-1.3438-4.9004 0.55865 0.37465 1.126 0.73875 2.0859 0.71875-2.7639-19.322-7.6416-36.577-16.055-50.375-0.91731 0.84932-1.8391 1.6668-2.7617 2.4414-0.18799 0.15599-0.37327 0.30504-0.5586 0.45703-2.3866 1.9613-4.7832 3.688-7.1738 5.1973 6.0918 10.342 11.575 22.406 14.758 35.168-5.2745-11.504-9.5732-23.966-15.848-34.492-2.7653 1.6773-5.5145 3.0802-8.2051 4.2441 4.2826 6.7972 7.8383 14.479 10.158 23.809-0.7053-0.46264-0.7041-1.6133-2.0801-1.416 0.30533 3.1546 2.1804 4.7731 2.707 7.709-3.0239-2.8026-6.3931-11.235-9.5957-16.166-2.6826 3.4199 3.4728 9.248 3.3262 14.701-2.016-4.3559-4.7624-8-7.541-11.613 0.29199 1.3253 0.56627 2.6601 0.82227 3.9961 0.25732 0.63065 0.44267 1.281 0.5 1.9609-0.0613-0.0613-0.11322-0.13327-0.17188-0.19727 0.11066 0.62398 0.21827 1.249 0.32227 1.877 0.0947 0.56265 0.18935 1.1248 0.27734 1.6914 0.37333 2.4079 0.69517 4.8302 0.95117 7.2715 1.0133 0.87598 2.3893 1.8078 3.1426 2.7598 0.17333 0.50666 0.34764 1.0159 0.51563 1.5332-0.12 0.58132-0.65606 1.1655-1.832 1.7441 1.5893 0.47732 2.7558 2.4175 3.8144 4.8281 3.5626 12.848 5.8354 27.106 6.3047 36.598-0.052 0.28133-0.0842 0.56501-0.13086 0.84765h18.701c2.4346 0 4.4082 1.9756 4.4082 4.4102v18.281c0 2.4359-1.9736 4.4121-4.4082 4.4121h-16.729v47.641c0 1.4186-0.68063 2.668-1.7246 3.4746h14.916c3.7652-10.265 8.1503-21.326 11.297-32.816l0.01563 4.6973c-2.9813 9.9878-6.7109 19.206-10.744 28.119h4.123c2.5706-5.5145 4.8415-11.203 6.6602-17.088l0.01563 4.7383c-4e-3 0.76132 0.05296 1.504 0.15429 2.2226-1.1613 3.4079-2.303 6.7884-3.4336 10.127h10.75c0.28532 0.13866 0.5629 0.26567 0.82422 0.375 2.012 0.83463 3.5235 0.99987 3.8262 1.0332l0.23633 0.02734h41.104l0.39844-0.07226c1.568-0.27999 2.9579-0.77263 4.1992-1.3633 1.7013-0.80798 3.1121-1.803 4.2188-2.7109l3.9824 2.7109 7.6426 5.209 2.1719-5.209 6.6856-16.01-10.924-9.0312-0.16796-21.154-23.074-0.24609-0.15625 4.4004-15.156-10.549h33.893l-0.11523-26.172-33.787-0.11328c0.21066-2.3453 0.36445-4.6911 0.42578-7.0391 0.23066-8.4918-2.4294-16.188-3.7226-24.965-1.388-9.4251-4.3124-19.943-8.9629-30.941-3.4079-8.0545-12.365-24.758-9.7598-24.896-2.0133-0.53332-4.8918-0.12113-4.3691-5.125 3.3399 0.68398 5.6822 6.9452 7.8262 5.9492-5.7478-7.7158-12.59-17.787-17.832-25.068zm-325.02 11.705 1.9258 0.48046c0.56932 0.53198 1.0174 1.0951 1.3867 1.707 0.30266 0.50266 0.539 1.0482 0.73633 1.6309 0.072 0.21333 0.15031 0.41591 0.20898 0.64257-0.86131 3.5386-2.6642 4.5318-5.0508 4.7012-0.38133 0.02671-0.77488 0.0334-1.1855 0.0254-2.6106-0.0533-5.7677-0.67285-9.0996-0.04883-2.092 0.39332-3.9359 0.57136-5.7012 0.58203-1.572 9e-3 -3.0905-0.12425-4.6465-0.37891-1.676-0.27466-3.4124-0.68524-5.3457-1.2266-0.0573-0.016-0.11064-0.02697-0.16797-0.04297-0.59198-0.16667-1.2425-0.3024-1.9238-0.42773-0.40932-0.0747-0.83363-0.14613-1.2656-0.2168-0.85332-0.14133-1.731-0.28175-2.5977-0.45508-0.28666-0.056-0.57414-0.11631-0.85547-0.18164-1.936-0.44933-3.722-1.1154-4.8633-2.3887 2.0306 1.1693 3.8296 1.5627 5.5723 1.5 0.21332-8e-3 0.4279-0.02558 0.64257-0.04688 2.3919-0.23866 4.7198-1.2818 7.4277-2.3418 0.36399-0.14266 0.73143-0.28384 1.1074-0.42383 0.19466-0.072 0.38532-0.1448 0.58398-0.2168 0.0213-8e-3 0.04772-0.01153 0.07032-0.01953 1.496-0.52532 3.195-0.77267 4.9883-0.88867 2.3359-0.15199 4.8328-0.0798 7.2754-0.0625 4.1292 0.028 8.0867-0.12372 10.777-1.9023zm-91.191 1.7754c-7.3145 15.221-11.896 33.115-14.705 52.744 1.1866 0.024 1.8901-0.42726 2.5781-0.89258-0.53865 1.532-4.206 4.3274-1.6621 6.0566-0.05867-1.4813 0.64058-2.2181 1.6992-2.6074-1.044 11.228-5.3041 22.687-6.5254 33.701-0.37999 3.4146-1.2372 6.6791-2.0879 9.875h6.6309c2.4359 0 4.4082 1.9756 4.4082 4.4102v18.213c0 2.4359-1.9723 4.4121-4.4082 4.4121h-8.5742c0.016 0.37466 0.033535 0.74724 0.046875 1.1152 3.5826 0.13066 6.4822 0.85898 8.8008 2.2109 5.1999 2.9933 7.9492 8.0093 7.9492 14.508v16.215c0 8.9264-4.2373 13.39-7.9199 15.578 4.1319 12.552 9.0062 24.567 12.885 35.701-5.2479-11.166-10.231-22.605-14.34-34.93-1.1946 0.55199-2.4625 0.94813-3.7852 1.1895 6.8638 26.105 21.166 49.157 35.225 70.086 0.68133-3.2452 1.4931-6.2134 2.4531-8.8906-5.2212-1.7106-6.9551-13.216-11.404-17.775 5.6732 0.58132 7.0062 12.443 11.578 17.303 1.8426-5.0012 4.1896-8.9931 7.0469-12.041l-0.00586-0.07617 0.02148-0.01954c-0.86264-13.417 1.1389-26.707 5.8281-38.932-1.3173-3.0786-2.5682-6.205-3.7441-9.377h-9.8262c-6.8305 0-12.37-3.1312-16.041-9.0938-1.876-3.1199-2.9717-7.4542-3.3477-13.25-0.0053-0.096-0.009766-0.19049-0.009765-0.28516v-32.344c0-8.2771 3.0735-14.817 9.1387-19.443 2.3213-1.752 4.9529-2.981 7.8555-3.709 2.0226-19.954 8.5479-49.478 17.625-64.682 2.176-3.6466 6.3137-5.4471 5.0684-9.543-2.6746 2.7853-4.117 6.7753-6.793 9.5606 0.41599-5.0332 6.2104-8.8859 5.957-12.48-0.10933-0.052-0.21942-0.10231-0.33008-0.1543-4.6319 6.3478-9.8407 12.133-13.309 19.617-0.18133-6.7318 7.4219-13.93 4.1113-18.152-3.9546 6.0878-8.115 16.503-11.85 19.963 0.64932-3.6252 2.9658-5.625 3.3418-9.5195-1.7-0.24266-1.6964 1.1807-2.5684 1.75 1.924-7.7278 4.5328-14.538 7.6367-20.721-4.3292-2.8159-6.8823-4.941-7.2637-5.2637l-0.89453-1.0078-0.09375-0.14063c-0.15466-0.152-0.44141-0.34846-0.80273-0.56445-5.7945 11.348-10.352 23.902-15.738 35.648 3.2319-12.957 8.3864-25.329 14.293-36.418-0.75998-0.37066-1.5944-0.73077-2.3438-0.9961-4.6692-1.592-8.5688-3.9276-11.805-6.5488zm313.65 1.0508c6.9339 0.33277 7.3604 19.643 5.6719 24.006-3.7519 9.6878-6.8922 19.174-11.773 28.467-3.3292 6.3385-7.0351 12.461-10.459 18.76-2.7439 5.0439-4.7438 11.17-8.1211 15.787-0.036-5.2279 1.4175-13.105 2.9121-18.166 2.6959-9.1224 4.2338-15.811 4.2324-25.617-3e-3 -8.3624 0.63024-17.42-3.2363-24.416-1.1853-2.1466-2.7265-1.5547-2.5078-4.668 0.19466-2.7866 4.7139-6.2977 6.5898-7.875 4.1879-3.5132 8.2416-4.495 13.105-5.7363l-0.96289 1.4434c1.7583-1.4554 3.2648-2.046 4.5488-1.9844zm121.29 13.115c2.5559 7.0438 9.2107 18.976 10.584 21.439-2.3266-8.3744-6.6574-14.702-10.584-21.439zm-393.14 10.211c-0.22933 0.34265-0.46751 0.68264-0.6875 1.0293-7.1185 11.156-9.3022 30.699-11.688 46.656 5.6332-15.457 10.955-31.248 18.484-45.328-2.128-0.74665-4.1668-1.5388-6.1094-2.3574zm8.7226 3.2402c-2.3919 4.0266-4.6899 8.149-6.0898 13.188 0.85731-1.54 4.2659-7.6518 6.7285-12.986-0.21466-0.0667-0.42802-0.13185-0.63868-0.20118zm3.7246 1.1055c-1.8733 4.1346-4.2733 8.9551-5.6133 12.123-3.7679 8.9064-6.1378 17.425-7.2617 25.059-1.0453 7.1092-3.2023 13.343-3.0156 20.219 0.11333 4.2532 0.58541 8.4881 1.1641 12.752h3.9531c-0.164-25.269 6.8792-50.207 17.404-68.543-2.2786-0.46799-4.4922-1.0107-6.6309-1.6094zm79.514 4.6172c0.49864 0.50532 1.0642 1.0535 1.6602 1.6309 1.7946 1.7346 3.9033 3.7586 5.6152 5.8106l0.01562 0.01757c1.1413 1.372 2.108 2.7536 2.668 4.0723 2.5839 6.0958 1.5439 16.252 2.3398 22.887-1.9933-4.1879-3.1155-8.3947-5.0234-12.42-0.40399-0.85198-0.83224-1.6986-1.3242-2.5332-0.97464-1.652-2.7364-3.9057-4.291-6.3203-2.2626-3.5186-4.0822-7.3846-2.3809-10.258l0.72071-2.8867zm312.65 3.9727c0.68665 4.8226 1.9828 9.0155 4.4414 12.023-0.97197-4.5279-2.0495-8.9435-4.4414-12.023zm-402.68 4.875c-1.9373 2.4933-2.8116 6.0717-3.5996 9.7383 1.992-2.4359 3.045-5.8317 3.5996-9.7383zm214.8 4.1797c0.38799 3.5946-1.6078 6.3517-4.1797 8.8223-0.22 0.21066-0.44389 0.42029-0.67188 0.62695-2.9386 2.6839-6.3998 5.0789-7.9531 7.9375-3.5612 6.5545 4.4058 5.5288 8.4297 2.9062 2.4279-1.5813 4.8418-6.1824 7.4258-3.3438 0.0987 0.10799 0.19298 0.20466 0.29297 0.33399 1.156 1.5253 0.53901 4.1675-0.29297 6.3008-0.33865 0.87064-0.71492 1.6568-1.0176 2.2461-2.9586 5.7505-5.6111 9.5855-5.5098 14.748 5e-3 0.27466 0.01255 0.54937 0.03125 0.83203 0.1 0.25599 0.18411 0.51931 0.27344 0.7793 0.59331 1.7013 1.013 3.4712 1.2344 5.2832-0.76798-1.9453-1.2036-3.6602-1.4062-5.2441-0.0347-0.27466-0.07887-0.55304-0.10157-0.81836-0.0987-0.26-0.21168-0.51096-0.31835-0.76563-1.292-3.0292-3.1942-5.7926-5.7461-8.0898-6.6972-6.0185-13.29-5.8673-21.236-8.1699-3.7599-1.0893-3.8654-3.3818-6.6934-5.0938-2.7653-1.6773-4.4394-0.30951-7.5859-0.4375-4.0146-0.16533-5.2687 0.36461-5.4434-4.4473-0.0827-2.2173 0.55488-4.6225 2.4375-5.7852h-0.96485c1.6853-1.3426 2.8518-3.3441 4.2598-4.748-1.3586 1.8146-1.835 3.7551-0.51367 5.7324 1.9426 2.9119 2.7507 0.78149 4.916 1.0215 5.6345 0.62398 8.6092 1.2487 13.373-2.4512 2.6626 5.3212 10.812-5.4573 13.971-6.2266-0.14 5.1625-6.9268 7.8778-9.0508 11.959 2.6946 3.0146 8.9889-2.0336 14.33-6.9375 0.68665-0.62931 1.3554-1.256 1.998-1.8613 2.4426-2.2999 4.5223-4.3174 5.7129-5.1094zm192.34 3.8379c1.568 6.6985 1.5914 10.15 4.4726 14.607-1.08-5.2879-1.97-10.77-4.4726-14.607zm-267.53 1.6875c3.516-0.03477 6.9768 0.70483 8.9551 3.0723-1.1866 1.836-4.1743 5.4904-6.3223 6.2891-2.7973 1.0386-2.7131-0.33814-5.7637-1.0781-2.2333-0.54132-7.614 1.5646-8.7246-0.69531-1.0853-2.2039 1.7101-5.4115 3.6914-6.2422 0.11066-0.0453 0.21631-0.08063 0.32031-0.11133 0.0707-0.0213 0.14685-0.04725 0.21485-0.06055h-0.32422c0.0387-0.0107 0.08439-0.02185 0.12305-0.03125 0.23466-0.064 0.47857-0.12873 0.72656-0.1914 0.32933-0.0813 0.67278-0.16033 1.0234-0.23633 1.842-0.39499 3.9705-0.69398 6.0801-0.71485zm-175.34 0.02344c-2.8053 16.022-12.566 25.234-13.318 43.258-1.4453-14.685 3.3819-23.646 6.5059-35.422 1.4693 2.6106-2.1698 7.5147-1.5898 12.088 4.1306-5.3385 2.6065-16.211 8.4023-19.924zm32.119 0.70313c-2.0266 3.1079-2.7451 7.5463-3.6211 11.826 2.336-3.6092 2.3531-6.4023 3.6211-11.826zm358.67 1.3984c4.6946 3.0066 3.4614 11.81 6.8066 16.135 0.26399-2.096-0.56325-4.2782-1.1152-6.1621 0.24133 0.208 0.51309 0.38781 0.84375 0.50781-4e-3 -0.20933-0.00706-0.4202-0.00976-0.63086 2.4253 7.9318 5.2837 14.787 4.2598 25.184-0.60798-14.597-8.5159-22.058-10.785-35.033zm-224.43 20.996c0.71255-0.0166 1.4128 0.06263 2.0918 0.2793 3.2812 1.044 7.1304 7.7866 3.2852 10.504-2.5626 1.812-2.2778-0.60306-4.9551-1.123-3.1933-0.61998-5.3151 1.0945-8.0684 1.0332-5.1345-0.11866-5.4029-4.8919-2.7363-7.7012 0.29332-0.30799 0.61719-0.59566 0.97852-0.84766 1e-3 -1e-3 0.0039-0.00291 0.0039-0.00391 0.0253-0.016 0.04371-0.03673 0.06641-0.05273-0.0293 4e-3 -0.05859 0.00481-0.08789 0.00781h-0.00782c-0.044 4e-3 -0.08814 0.00781-0.13086 0.00781l0.11329-0.04492h0.00586l0.4082-0.16406c0.0907-0.0547 0.19573-0.09445 0.28906-0.14649 0.0453-0.02269 0.0894-0.04185 0.13477-0.06445 0.45065-0.22799 0.92974-0.42101 1.4551-0.54101l-1.4395 0.57617-0.14453 0.05859-0.29492 0.11719c-0.10267 0.0613-0.20211 0.12803-0.30078 0.19336 0.216-0.012 0.43368-0.03515 0.65234-0.06445 0.0733-9e-3 0.14933-0.02446 0.22266-0.03516 0.62265-0.096 1.2584-0.24578 1.9023-0.42578 2.1659-0.60499 4.419-1.5127 6.5566-1.5625zm29.803 10.641c0.19199 3e-3 0.3854 0.02102 0.58007 0.04102 0.33199 0.032 0.66544 0.08136 0.9961 0.16406-0.016-0.028-0.03283-0.05328-0.04883-0.08398l0.14844 0.11132c0.32933 0.08801 0.64885 0.21033 0.96484 0.34766 0.0893 0.0413 0.17567 0.0882 0.26367 0.13086 0.63065 0.31332 1.2182 0.72121 1.7129 1.2559 0.072 4e-3 0.14799-2e-3 0.22266 0 0.12533 1e-3 0.25153 1.4e-4 0.38086-0.00586h0.01172c1.1973-0.0533 2.5526-0.36942 3.9473-0.71875 0.67331-0.16666 1.3533-0.33886 2.0293-0.49219 2.3373-0.52398 4.632-0.79547 6.3359 0.3125 3.3279 2.164 2.5257 4.5472 0.37109 6.7285-0.40265 0.40799-0.85143 0.80794-1.3301 1.1973-2.2893 1.868-5.2452 3.5122-6.8945 4.6309-1.7906 1.2146-3.1488 2.5264-4.5234 2.8984 0.25466 0.55599 0.40429 1.1703 0.40429 1.8223v10.074c3.4332 0.29599 3.8714 3.8656 1.2715 7.7988-0.43733 0.66132-0.85817 1.1723-1.2715 1.5723v28.441h30.852c0.69465 0 1.3405 0.17232 1.9258 0.45898 0.0947 0.048 0.18925 0.09967 0.28125 0.1543 1.3093 0.76132 2.2012 2.167 2.2012 3.7949v18.266c0 1.656-0.92539 3.0826-2.2774 3.8359-0.63332 0.35332-1.3522 0.57227-2.1309 0.57227h-56.4c-1.3093 0-2.4707-0.58163-3.2773-1.4883-0.69465-0.77998-1.1309-1.796-1.1309-2.9199v-65.6c-1.1226 0.036-2.2614-0.63321-3.0254-2.1172-1.9813 1.2666-3.5348 3.3673-5.6348 4.418-0.46265-2.9599 2.0152-5.3979 3.7871-7.1992 1.6306-0.0467 3.3264-0.18033 4.873 0.125v-0.1875c0-2.2959 1.7632-4.1598 4.0059-4.3691 0.13466-0.0107 0.26634-0.04102 0.40234-0.04102h21.143c0.13467 0 0.25997 0.03032 0.39063 0.04102-0.28133-1.328-0.53872-3.0866-0.97071-3.7812-0.87065-1.4066-2.489-2.0881-3.5156-3.3574-1.36-1.6733-1.7295-3.0765-1.4922-4.1738 0.37733-1.7373 2.3033-2.6942 4.4219-2.6582zm232.87 17.6 15.09 0.04883 29.607 0.09766 0.07617 16.791h-35.52s-0.06825-9e-5 -0.15625 0.00391c-0.45199 0.016-1.7961 0.22065-1.8574 2.0859v2.0879s0.44655 1.0469 0.89454 1.0469l0.37304 0.25977 3.2148 2.2383 23.424 16.307 0.30079-8.4336 13.877 0.14843 0.15039 18.73 9.9258 8.209-5.2988 12.688-10.074-6.8652s-3.5084 4.6262-8.6562 5.5195h-40.445s-7.9082-0.82043-7.9082-9.1016l-0.04883-13.441-0.02539-7.752s-0.03647-2.1161 1.2422-4.248c1.296-2.1586 3.9456-4.334 9.3535-4.334 0 0-5.1486-4.6997-5.2246-7.6836l-0.05078-10.881-0.02344-5.1641s0.22395-8.2841 7.7598-8.3574zm-500.05 0.02539c-6.1665 0-10.642 1.5593-13.436 4.6699l-1.6543 2.3359c-0.90664 1.748-1.3633 3.3087-1.3633 4.666v17.42c0 4.6692 2.1425 8.5606 6.4277 11.674 2.4679 1.82 5.2571 2.7266 8.373 2.7266h33.195v8.3691h-47.996v18.221h56.863c0.89731 0.0213 1.7413-0.05491 2.5586-0.18554 1.2493-0.2 2.4088-0.57087 3.4688-1.1309 0.09866-0.0533 0.20602-0.08854 0.30469-0.14453 0.39866-0.22533 0.76368-0.47962 1.125-0.73828 3.2639-2.3479 4.9082-6.0744 4.9082-11.209v-16.215c0-4.9239-1.915-8.4836-5.7402-10.688-1.624-0.94664-3.7758-1.4846-6.457-1.6152-0.43199-0.02-0.87338-0.03515-1.332-0.03515h-34.463v-9.9082h44.18v-18.213h-48.963zm85.248 0.00782c-2.5013 0-4.784 0.36552-6.8652 1.0762-1.7413 0.59332-3.3438 1.4223-4.7891 2.5156-4.9239 3.7546-7.3848 9.0633-7.3848 15.926v32.342c0.32399 5.0292 1.2307 8.7837 2.7227 11.264 2.8533 4.6346 6.9405 6.957 12.262 6.957h20.859c1.2546-1.5933 2.6066-3.0576 4.0332-4.4082 2.5759-2.4426 5.3827-4.5232 8.252-6.3418 0.61598-0.39066 1.2335-0.76874 1.8535-1.1367 0.36132-0.21601 0.72195-0.42872 1.0859-0.63672 0.77465-0.44532 1.5458-0.87245 2.3164-1.2871 0.74265-0.39865 1.4841-0.7927 2.2188-1.166 1.5986-0.82131 3.402-1.9828 5.3086-3.2441h-39.963v-33.646h40.939v-18.213h-42.85zm62.92 0v42.693l1.8555-0.52344-1.8555 1.8555v2.1445c1.8226 0.30666 3.2776 0.6771 4.4082 1.1211 0.312 0.12 0.60258 0.2462 0.86524 0.38086 9.4638 4.7599 13.873 8.3012 14.637 11.814 0.65598 0.78398 1.6621 1.9844 1.6621 1.9844l0.08203 0.09961c1e-3 7e-3 0.36886 0.4278 1.9102 0.95312l0.88086 0.29883 0.54297 0.75781c0.48665 0.67599 0.80296 1.3785 0.98828 2.0918 0.10933 0.42533 0.18164 0.85574 0.18164 1.2891 0 0.0933-0.00176 0.18792-0.00976 0.28125l-0.01563 0.34766-0.10156 0.33398c-0.204 0.67865-0.50143 1.4055-0.85742 2.1602h30.297c0.14267 0 0.27983-0.0279 0.42383-0.0332 0.49732-0.0213 0.99372-0.08311 1.4844-0.17774 2.8746-0.56132 5.6141-2.3972 8.2207-5.5078 0.22533-0.268 0.45055-0.51865 0.67188-0.80664 2.9186-3.7652 4.3828-8.0438 4.3828-12.848v-50.711h-21.008v51.861h-28.697v-51.861h-20.949zm263.08 0.38086v18.283h21.084v52.051h21.082v-52.051h21.139v-18.283h-63.305zm-79.928 0.00195v70.334h21.082v-22.682h28.842c6.7118 0 11.763-2.119 15.152-6.3535 2.4799-3.0533 3.7148-6.4707 3.7148-10.252v-13.182c0-6.0518-1.7252-10.642-5.1758-13.768-1.8906-1.6946-3.8117-2.8319-5.7637-3.4199-1.564-0.45332-3.7818-0.67773-6.6484-0.67773h-51.203zm-84.109 0.32031v70.562h56.4v-18.266h-35.258v-52.297h-21.143zm239.79 9.4512c-0.18533 0.51732-0.31264 1.0499-0.41797 1.5898 0.0187-0.45599 0.03859-0.92192 0.05859-1.3926 0.10266-0.0813 0.21805-0.15194 0.35938-0.19727zm-0.57617 6.0957c0.22399 2.5426 0.83482 5.0952 1.2441 7.3965l0.0039 0.82812v0.01172c0.036 0.84131 0.179 1.5622 0.375 2.2129 0.0587 1.092 0.10072 2.1357 0.13672 3.1543-0.42666 0.28133-0.83443 0.57215-1.2051 0.88281 0.06799-1.732 0.10673-3.4763 0.08007-5.2402-0.34399 2.1266-0.73244 4.2059-1.1484 6.2578-0.75865 0.79731-1.3737 1.6415-1.8457 2.4668 1.292-5.9158 2.162-11.922 2.3594-17.971zm-134.02 2.416h26.627v14.623h-26.627v-14.623zm-245.88 3.9551c0.66665 3.1839 1.5184 6.2823 2.7051 9.1836 0.0387 0.088 1.127-0.86953 1.4043-0.68554 0.83732 5.7479 2.0167 11.16 3.4434 16.33h14.029c0.58931 0 1.1468 0.1188 1.6602 0.32813-0.59332-1.756-1.1882-3.5183-1.7988-5.2969-2.5306-7.3852-3.7796-12.732-4.0156-19.859h-7.7227c0.29332 1.304 0.55953 2.5498 0.74219 3.6777-1.86 0.92398-4.4932 1.0591-5.6172 2.7324-0.63999-2.1186-1.1971-4.2596-1.7051-6.4102h-3.125zm32.084 12.787c0.55065 3.2946 1.1705 6.4546 1.8984 9.4492l2.1582-0.60938c-0.19333-0.88798-0.38294-1.7692-0.57227-2.6465-1.2093-2.0373-2.3684-4.1014-3.4844-6.1934zm364.91 1.709c-1.4684 0.13368-1.543 2.5742-1.543 2.5742v10.633c0 1.9386 1.2224 2.36 1.9023 2.4453 0.26533 0.0307 0.44922 0.01758 0.44922 0.01757l21.713-0.11132-17.002-12.17-3.3262-2.3828-0.9375-0.67187c-0.50349-0.273-0.91701-0.36484-1.2559-0.33399zm-398.02 3.4648c-0.32966 0.0294-0.65033 4.2014-0.63867 6.8672h0.44141c1.6373-1.692 0.86783-5.7267 0.33984-6.6094-0.0465-0.18133-0.09548-0.26201-0.14258-0.25781zm3.6191 2.3906c0.41199 1.504 0.84507 2.9953 1.2891 4.4766h0.98828c-0.73331-1.5106-1.484-3.0086-2.2773-4.4766zm398.55 2.3223 3.8457 2.752-4.8359 0.0293v-0.03711c0.35199-0.89998 0.6849-1.8162 0.99023-2.7441zm-367.55 2.6855c-0.08 0.02-0.16486 0.04511-0.24219 0.06641-4e-3 3e-3 -0.00706 0.00386-0.00976 0.00586-0.16933 0.044-0.33644 0.08792-0.50977 0.14258-0.012 0-0.02315-9.1e-4 -0.03515-0.00391-0.16933-9e-3 -0.33849-0.01544-0.50782-0.02344-0.0853-7e-3 -0.1731-0.01162-0.25976-0.01562-0.0467 0.0507-0.11339 0.11393-0.16406 0.16992-0.11866 0.124-0.23305 0.24682-0.37305 0.38281-0.15866 0.0693-0.3211 0.148-0.48242 0.22266-1.5666 0.73065-3.2697 1.7472-5.0137 2.8672-0.12133 0.08-0.24452 0.16352-0.36718 0.24218-0.25466 0.164-0.50901 0.32615-0.76367 0.49415-1.0933 0.71731-2.1921 1.4535-3.2734 2.1602-0.61999 0.40933-1.2345 0.8069-1.8398 1.1856-0.88264 0.55332-1.7444 1.0651-2.5684 1.5117-0.18398 0.0987-0.36945 0.20159-0.55078 0.29492-1.6413 0.84131-3.2604 1.7186-4.8457 2.6426-0.32399 0.18933-0.64156 0.38223-0.96289 0.57422-0.65465 0.39466-1.306 0.80142-1.9473 1.2188-1.7 1.1-3.3393 2.2776-4.8926 3.5469-1.6546 1.352-3.2132 2.8109-4.6465 4.4082-1.2253 1.3653-2.3628 2.8275-3.3867 4.4102-0.72399 1.12-1.3914 2.2971-1.998 3.5371-1.5426 3.1586-2.866 6.3925-4.002 9.6777-3.6026 10.426-5.1655 21.405-4.7441 32.457 1e-3 0.056 9.1e-4 0.11588 0.00391 0.17187 0.048 1.212 0.11298 2.4215 0.20898 3.6348-0.92398 0.87998-1.7972 1.8804-2.6172 2.9844-0.02 0.028-0.0399 0.05729-0.0586 0.08399-2.144 2.9053-3.9262 6.5917-5.3555 11.045-0.25599 0.79465-0.49909 1.6079-0.73242 2.4492-0.61199 2.2266-1.1482 4.6202-1.6055 7.1894-0.84664 4.7786-1.4253 10.136-1.7226 16.1-0.15467 3.0812-0.29326 6.9892-0.41993 11.734-0.04133 5.2225-0.09216 8.4845-0.16016 9.7871-0.15333 3.0746-2.3782 10.685-6.6621 22.814-1.38 3.8506-2.7283 10.611-4.043 20.277-1.276 8.8411-2.9108 15.468-4.9121 19.877-2.9826 2.7013-7.7894 3.8828-14.42 3.5508-1.7746-0.0893-5.2243 0.09797-10.354 0.55664-4.2946 0.50266-7.676 0.51332-10.143 0.0293l-1.0059 2.2754c-0.58132-0.26532-1.0504-0.40845-1.4023-0.42578-0.70932-0.0333-1.0818 0.30098-1.1191 1.0156l0.14062 0.72461 0.50781 0.56054 6.0254 0.66016c-1.7773-0.0867-3.2203 0.20011-4.3203 0.85742l0.019531 0.89649-0.099609 0.71093c0.58932 0.14667 4.9643 0.42662 13.135 0.83594 1.5426 0.0773 4.0212 0.44257 7.4277 1.0879l-1.6699 1.3438c0.16533 1.4373 0.59761 2.2938 1.2949 2.5644 5.3599-2.6986 10.527-3.9239 15.504-3.6719 1.424 0.0707 3.4053-0.42502 5.9492-1.4863 1.548-2.4173 3.6314-6.0536 6.25-10.912 0.05867-1.1826 2.6485-8.9856 7.7617-23.395 5.1172-14.414 8.1292-22.366 9.0332-23.871 3.1226-5.3052 5.0253-10.199 5.7226-14.678 7e-3 -0.15333 1.0408-2.8222 3.082-7.9688 0.012-0.036 0.02697-0.07013 0.04297-0.10742 0.20799-0.52399 0.42497-1.077 0.6543-1.6543 0.22133-0.55598 0.45007-1.1284 0.69141-1.7324 0.55732 1.0106 1.2229 2.0068 1.9336 2.9961 0 0-1e-3 0.0039 0 0.0039 0.25866 0.36266 0.51051 0.72337 0.78515 1.082 0.27466 0.35465 0.56614 0.70012 0.85547 1.0508 0.24132 0.29599 0.47848 0.59083 0.73047 0.88282 0.50799 0.58799 1.0264 1.1728 1.5664 1.7461l-0.26367 1-0.45313 1.7051-0.15234 0.57031-0.00781 0.03125-0.22461 0.85352 1.209 0.41406c0.0213-0.0453 0.04315-0.10568 0.06445-0.15234 7e-3 -0.01471 0.01033-0.03032 0.01563-0.04102 7e-3 -0.0147 0.01358-0.02762 0.01758-0.04102 0.23466-0.53866 0.43985-1.25 0.61718-2.1699 0.0653-0.348 0.12883-0.72234 0.1875-1.125 0.44799 0.45066 0.91245 0.8829 1.3711 1.3242 0.22133 0.21466 0.43873 0.43387 0.66406 0.64453 0.15733 0.148 0.30814 0.30317 0.4668 0.45117 0.064 0.0587 0.1274 0.11126 0.1914 0.16993 0.77998 0.71998 1.5694 1.4255 2.3613 2.1055 9e-3 0.224 0.01349 0.41887 0.02149 0.63086 0.02 0.47333 0.03356 0.92448 0.04297 1.3418 0.01869 0.70799 0.02408 1.342 0.02148 1.8887v0.04883c-4e-3 0.40932-0.01404 0.78557-0.02734 1.1016-0.16532 3.3186-1.5504 6.7489-4.1543 10.301l0.27344 1.6172c3.4212-4.2239 5.2103-7.9928 5.377-11.305 8e-3 -0.13467 1e-3 -0.29784 0-0.45117v-0.11133c-0.0147-0.49732-0.0725-1.0852-0.17383-1.7558-0.084-0.54801-0.18545-1.1367-0.32812-1.8047-0.056-0.25599-0.09525-0.48586-0.14454-0.72852 0.71065 0.59998 1.4154 1.1756 2.1113 1.7383 0.45199 0.36532 0.89657 0.72099 1.3379 1.0703 1.8493 1.4586 3.5799 2.7615 5.0625 3.8828 0.152 0.11466 0.30975 0.23051 0.45508 0.33984 0.0973 0.16666 0.1833 0.336 0.2793 0.5 1.2253 2.0799 2.3533 4.1991 3.4199 6.3457 0.21199 0.42134 0.42882 0.84226 0.63281 1.2676 0.29066 0.60132 0.57095 1.209 0.84961 1.8184 1.176 2.5813 2.2537 5.2005 3.207 7.8711 0.016 0.044 0.03338 0.08558 0.05079 0.12695 0.03069 0.0933 0.07213 0.18597 0.10546 0.2793l0.02149 0.03515 0.03906 0.06446 0.45313 0.75976 0.05078 0.08594 0.04882 0.08008c-0.01869-0.0173-0.02892-0.03608-0.04492-0.05078-0.0307-0.032-0.05468-0.06885-0.08398-0.10352-0.10267-0.10666-0.20754-0.21656-0.29688-0.33789 0.0493 0.14133 0.09321 0.27992 0.14258 0.41992 0.0573 0.17066 0.11649 0.34496 0.17383 0.51563 0.0133 0.0427 0.02772 0.08562 0.04102 0.12695l0.04687 0.13477c0.032 0.0973 0.065 0.19048 0.0957 0.28515 0.012 0.10133 0.02121 0.20141 0.03321 0.30274 5e-3 0.072 0.01543 0.14675 0.02343 0.21875 7e-3 0.0507 0.00863 0.10096 0.01563 0.15429 9e-3 0.0453 0.01794 0.0965 0.02734 0.14453 0.90931 4.4012 0.40869 9.4036 0.38867 14.133-0.00499 1.94 0.06628 3.8332 0.35157 5.6172 0.32266 1.996 0.77449 4.084 1.3691 6.168 5e-3 0.02 0.01162 0.0386 0.01562 0.0586 0.08 0.27333 0.15943 0.54823 0.2461 0.82421 0.0307 0.10402 0.06045 0.20984 0.09375 0.3125 0.0173 0.05872 0.03208 0.11908 0.05078 0.17774 0.0253 0.0547 0.05412 0.10939 0.07812 0.16406 0.19733 0.41733 0.39995 0.84021 0.61328 1.2695-0.0547 0.0387-0.10939 0.08107-0.16406 0.1211 0.33466 0.92265 0.71125 1.8319 1.1152 2.7266 9e-3 0.0213 0.01999 0.04241 0.02929 0.06641 1.4653 3.2159 3.4069 6.1963 5.9922 8.5176 2.8599 2.5746 5.4554 5.4876 8.7793 7.5195 3.2626 1.992 7.409 2.5744 11.074 3.4863 0.0467 0.0147 0.0946 0.02586 0.14257 0.03516 0.13999 0.0347 0.2826 0.06944 0.41993 0.10547 3.8026 1.0013 7.4591 1.2553 11.375 1.834 0.0853 0.0133 0.17053 0.02511 0.25586 0.03711 0.0573 9e-3 0.11196 0.01869 0.16796 0.02539 1.9053 0.29199 3.6505 0.61023 5.6465 0.71289 0.084 5e-3 0.16867 0.01293 0.25 0.01563 1.836 0.104 3.8005 0.26962 5.5644 0.71094 0.216 0.056 0.43625 0.10992 0.65625 0.16992l1.0586-0.36914c11.965 0.59999 30.18-0.38954 54.652-2.9668 6.4465-0.71465 11.388-0.98644 14.822-0.81445 4.3839 0.22133 12.662 2.0777 24.836 5.5723 12.173 3.4932 21.28 5.3894 27.318 5.6934 6.7518 0.336 15.619-0.06185 26.6-1.2031 14.078-1.3226 22.961-2.0615 26.648-2.2148 3.8626 3.5039 7.092 5.3218 9.6973 5.4551 4.7386 0.23599 11.062-2.7087 18.967-8.8379 3.9519-0.63332 8.5809-1.7664 13.885-3.4023l0.20507-0.52149c1.4186 0.19199 2.6306-0.34169 3.6426-1.5976l-0.13281-0.89258 1.082-0.30469 0.64258-2.1035 0.91406-0.49023 0.39844-0.86719 0.08203-1.5996c0.028-0.59065-0.23946-1.1957-0.80078-1.8184l0.375-0.33593 0.20508-0.52539-0.31445-0.9043c-0.68933-0.38799-1.5589-0.84897-2.6016-1.377-1.0666-0.0547-1.811-0.56585-2.2363-1.5352l-1.041-0.58789c-4.4052 0.25599-11.02 0.75469-19.844 1.5-9.9118 1.1613-18.443 1.9831-25.592 2.4551-0.59065-0.21066-1.189-0.43207-1.793-0.66407-1.2266-0.47064-2.4811-0.9945-3.7598-1.5625-3.4399-1.528-7.0482-3.402-10.828-5.6152-1.4226-0.83598-2.8704-1.7184-4.3438-2.6504-0.68665-0.43465-1.3769-0.87729-2.0742-1.3359-6.6758-4.3652-13.834-9.7129-21.469-16.023-0.196-0.16266-0.38665-0.31976-0.58398-0.48242-4.3999-3.6519-8.958-7.6279-13.674-11.924-0.90931-0.82799-1.8248-1.6676-2.7461-2.5195-2.0093-1.8613-4.0479-3.7806-6.1172-5.7539-3.7532-3.5892-7.5998-7.3591-11.541-11.32-0.012 0.25734-0.05615 0.16848-0.13085-0.24218-0.06672-0.35332-0.15302-0.9489-0.26368-1.7969-0.024-0.16933-0.04826-0.34778-0.07226-0.53711-0.18266-1.4306-0.41966-3.436-0.70899-6.0039-0.0787-0.68798-0.15748-1.4026-0.24414-2.1719-0.75999-0.90531-1.6357-2.0554-2.625-3.4434-0.81198-1.14-1.7001-2.4422-2.6641-3.9102-0.16799-0.25466-0.34229-0.52241-0.51563-0.78907-0.11466-0.17867-0.22704-0.34921-0.3457-0.5332-0.16533-0.12933-0.53591-0.25615-1.0879-0.38281h-0.00781c-2.12-0.47999-7.0638-0.91598-14.852-1.3066-0.55065-0.028-1.1773-0.08315-1.8359-0.14844-2.4879-0.25333-5.7343-0.78205-9.7422-1.582-7.3865-1.4786-17.361-3.8948-29.914-7.248-0.90265-0.24-1.7986-0.47918-2.7266-0.72851-0.336-0.0813-0.68222-0.17249-1.0195-0.25782-2.7746-0.69465-5.6724-1.5302-8.7109-2.5195-0.33066-0.10667-0.66925-0.22332-1.0039-0.33398-1.8266-0.60665-3.6966-1.2666-5.6152-1.9746-1.4186-0.52665-2.8575-1.0737-4.3281-1.6524-0.29199-0.32398-0.71984-0.76069-1.2852-1.3047-1.9493-1.872-5.5256-5.0626-10.719-9.5625-1.4426-1.2506-3.0066-2.5948-4.7012-4.0508-1.2706-1.0866-2.8019-2.7891-4.5898-5.0957-0.82664-1.064-1.7072-2.26-2.6445-3.584-1.0346-1.4626-2.1347-3.08-3.3066-4.8613-2.0066-3.0159-3.9358-5.5694-5.7891-7.6641-0.24266-0.27466-0.48267-0.52456-0.72266-0.7832-1.156-1.2453-2.2862-2.3219-3.3809-3.1992-0.47466-0.38266-0.9436-0.73098-1.4062-1.043-0.38266-0.24266-1.6485-0.66751-3.7871-1.2715-0.11866-0.0307-0.25892-0.06885-0.37891-0.10351-0.10267-0.0267-0.21373-0.05794-0.3164-0.08594-0.43599-0.12-0.90236-0.24886-1.4024-0.38086-0.83998-0.22399-1.7432-0.46009-2.7578-0.71875 1.316-0.64799 2.5941-1.3287 3.8301-2.0566 3e-3 0 0.00481-0.00195 0.00781-0.00195 0.95465-0.56132 1.8857-1.1508 2.791-1.7734 1.092-0.75198 2.1443-1.5599 3.1562-2.4199 1.6-1.3626 3.0997-2.872 4.4863-4.584 0.38932-0.47866 0.76544-0.97372 1.1348-1.4844 0.87732-1.2053 1.7052-2.4991 2.4785-3.9004 0.95731-1.732 2.1056-3.9793 3.0469-6.3379 0.14933-0.37733 0.29298-0.75221 0.43164-1.1309 0.0707-0.19733 0.14428-0.39253 0.21094-0.58985 0.77598-2.2666 1.2832-4.5423 1.1699-6.4902-0.0787-1.4066-0.26987-2.7493-0.50586-4.0586-0.0693-0.40133-0.14728-0.80643-0.22461-1.2051-0.08-0.40933-0.16538-0.81147-0.24804-1.2168-0.26533-1.2773-0.53153-2.5496-0.74219-3.8496 0.33332-0.44133 0.53022-0.95913 0.57422-1.5644 1e-3 -0.0267 0.00876-0.05143 0.00976-0.07813l-0.02148 0.06836-0.19531 0.63477c0.0347-0.18933 0.08701-0.41979 0.15234-0.67578 0.0267-0.1 0.05534-0.2038 0.08594-0.31446 0.25333-0.90931 0.67507-2.1618 1.2617-3.7578 0.0627-0.16933 0.12279-0.33439 0.18945-0.51172 0.0173-0.0333 0.03478-0.06175 0.05078-0.09375 0.0107-0.016 0.01879-0.03217 0.02539-0.04687 0.0947-0.16799 0.18092-0.33014 0.26758-0.49414 0.47199-0.90398 0.82989-1.742 1.0606-2.502 0.0253-0.46132-0.10505-0.93407-0.37305-1.4141-0.0733-0.132-0.15401-0.26315-0.25-0.39648-1.636-0.55732-2.7252-1.2053-3.2852-1.9453-1.3413-1.6093-2.0696-2.4768-2.1855-2.6035 0.12533-2.4426-4.1343-5.8592-12.746-10.232-0.14933-0.0747-0.28807-0.1479-0.4414-0.22657-0.87997-0.44265-2.2181-0.82329-3.9688-1.1406-0.45732-0.0853-0.9469-0.16228-1.4629-0.23828-0.89598-0.12933-1.8694-0.24623-2.9453-0.35156-0.0307-4e-3 -0.06445-0.00682-0.09375-0.00782h-0.00195c-0.016-4e-3 -0.03338-0.00481-0.05078-0.00781-0.69065-0.064-1.4183-0.1244-2.1836-0.17773-0.50665-0.04-1.0126-0.07807-1.5566-0.10743-1e-3 0-0.00485-0.00195-0.00585-0.00195-5e-3 0-0.01154-0.00391-0.01954-0.00391l0.24805-0.24414zm31.371 26.928c-0.0253 0.0853-0.05097 0.16619-0.07227 0.24219-0.0133 0.16932-0.0677 0.32171-0.0957 0.48437l0.01562 0.00391s-0.02836 0.08965-0.03906 0.12695c-0.0533 0.27332-0.12313 0.53688-0.20313 0.79688l0.23828 0.56836s-0.07111 0.07502-0.17773 0.18164c-0.0133 0.0133-0.02957 0.02826-0.04297 0.04296l0.38086 1.9961c0.26266 1.2693 0.52505 2.5757 0.73438 3.9316 0.87731 0.24133 1.7806 0.31822 2.6699 0.21289 0.83998-0.0947 1.6672-0.35379 2.4512-0.78711 0.87065-0.48266 1.689-1.1708 2.4023-2.1055-1.0733 0.02-1.9876-0.07466-2.7969-0.25195-3.1412-0.68532-4.5115-2.7514-5.4648-5.4434zm-56.17 3.6465c0.33599 0.58265 0.62505 1.0924 0.87305 1.5391-0.47999 0.69998-0.94565 1.4196-1.4043 2.1543-0.124 0.19866-0.24515 0.40539-0.36914 0.60938-0.0733 0.12267-0.14737 0.24648-0.2207 0.36914-0.0253 0.0427-0.05338 0.08487-0.08008 0.1289-0.89998 1.508-1.7596 3.078-2.5742 4.6953-0.98931 1.9666-1.906 3.9944-2.75 6.0664-1.4266 3.4906-2.6345 7.0811-3.5918 10.625-0.012 0.04-0.02121 0.08111-0.03321 0.1211-0.86131 3.2106-1.5136 6.371-1.9336 9.3789-0.0107 0.0747-0.0239 0.15191-0.0332 0.22657-0.12666 0.93598-0.24228 1.863-0.32227 2.7656-1e-3 0.0107-0.00391 0.0212-0.00391 0.0332-1e-3 0.012-9e-4 0.02316-0.0039 0.03516-0.0267 0.25066-0.04846 0.49943-0.06446 0.74609v0.0293c-1e-3 9e-3 -0.00195 0.01664-0.00195 0.02734-6.7e-4 0.01087-0.00195 0.02224-0.00195 0.03125l-0.08008 0.03321-4.1602 1.6816-0.01171 0.00586-0.83985 0.33984c-0.64532 0.26532-1.2761 0.56636-1.8867 0.90234-0.18666-1.0106-0.30901-2.0187-0.40234-3.0254-1e-3 -0.024-9.1e-4 -0.04826-0.00391-0.07226-0.47066-5.3199 0.35913-10.629 2.5391-16.721 0.72133-2.02 1.5082-3.8613 2.3535-5.5586 3.0306-6.0692 6.8801-10.313 11.639-14.396 0.35066-0.29999 0.70518-0.60173 1.0625-0.90039 5e-3 -5e-3 0.01088-0.00796 0.01758-0.01368 0.024-0.0187 0.05022-0.0412 0.07422-0.0625 0.22533-0.18531 0.44521-0.36935 0.67187-0.55468 0.50398-0.41332 1.0203-0.82692 1.543-1.2402zm173.82 11.482 11.484 0.16797-20.266 29.537c13.418-6.667 19.777-8.7852 26.867-8.7852 7.4078 0 10.83 3.9167 8 9.5254-0.90784 1.799-2.7222 4.761-5.332 8.4648l-12.465 18.203c-2.7176 4.1272-3.1977 4.8672-3.7852 6.0312-1.6555 3.2806-0.39616 5.6094 2.9902 5.6094 2.5398 0 4.9787-1.0577 9.8613-4.2324l1.0469 2.3281c-6.5827 4.6563-13.473 7.4062-19.082 7.4062-5.8204 0-8.0231-4.4433-5.0859-10.264 0.74763-1.4816 2.0288-3.5996 3.627-5.9277l14.756-21.482c1.2253-1.799 2.2368-3.3858 2.6641-4.2324 1.9225-3.8097 0.29478-6.4551-3.7266-6.4551-5.2912 0-14.037 3.28-23.852 8.8887l-26.422 38.521h-9.7363l41.924-61.062c0.53304-0.8466 1.0676-1.6928 1.4414-2.4336 1.7623-3.4922 0.81387-4.7615-3.9453-5.3965l-1.4805-0.21093 2.0781-3.0703c3.3911-0.32726 6.0333-0.68016 8.4375-1.1309zm-175.05 1.7676c0.0827 0.46399 0.20186 1.0009 0.36718 1.6289 0.0587 0.22132 0.10302 0.41587 0.15235 0.61719 0.11466 0.48399 0.20119 0.91273 0.25586 1.2754 9e-3 0.068 0.01739 0.13069 0.02539 0.19336 0.0373 0.30532 0.05823 0.57778 0.04883 0.78711-0.02 0.39199-1.3849 2.3478-4.0488 5.8184-0.57331 0.74798-1.19 1.5415-1.8887 2.4375-0.40799 0.52132-0.78888 1.0355-1.1582 1.5488-0.34799 0.48399-0.67824 0.96285-0.99023 1.4375-1.564 2.3746-2.6812 4.6331-3.3398 6.7637-0.012 0.0387-0.02781 0.07474-0.03711 0.10937 8e-3 -0.0373 0.02064-0.07397 0.02734-0.11133 0.60398-2.7466 1.4388-5.5179 2.4668-8.2285 0.71331-1.8706 1.5238-3.7024 2.4238-5.4824 0.90665-1.788 1.9101-3.5015 2.998-5.1348 0.056-0.084 0.11517-0.17115 0.17383-0.25781 0.0813-0.12267 0.16014-0.24914 0.24414-0.36914 0.30666-0.44532 0.62462-0.87917 0.94727-1.3125 0.43733-0.58265 0.87204-1.17 1.332-1.7207zm48.418 0.13086c-3e-3 0.056-0.00682 0.11125-0.00782 0.16992-0.11466 2.9533-0.31434 5.7841-1.4316 8.8066-0.45999 1.2533-0.99661 2.4056-1.5859 3.4883-0.29999 0.54532-0.61084 1.0747-0.9375 1.584-1.6413 2.5493-3.6356 4.6458-5.8516 6.4844-1.1133 0.92264-2.2804 1.7828-3.4844 2.6055-1e-3 0-0.00481 0.00391-0.00781 0.00391-1.0306 0.70398-2.0855 1.3822-3.1602 2.0488-0.0613 0.0387-0.12421 0.07653-0.18555 0.11523v0.00196c-0.77731-0.19733-1.6151-0.40581-2.4844-0.61914-0.47199-0.11733-0.95901-0.23733-1.459-0.36133-0.012-1e-3 -0.01999-0.00482-0.02929-0.00781-0.11466-0.0293-0.21994-0.05404-0.33594-0.08204 0.116-0.21066 0.23475-0.47849 0.35742-0.78515 0.14799-0.36933 0.30103-0.80247 0.45703-1.3145l0.94141-0.70898 0.17187-0.12695 1.0625 0.05273c1.3386 0.068 3.3917-1.1286 6.125-3.5352 1.14-0.99998 2.3843-2.1917 3.7656-3.625 0.64132-0.66265 1.2324-1.2948 1.791-1.9121 0.29465-0.32399 0.562-0.63661 0.83399-0.94727 3.0093-3.4426 4.6751-6.1138 4.9551-7.9805 0.17733-1.2346 0.33461-2.2915 0.47461-3.1875 8e-3 -0.0547 0.01739-0.11464 0.02539-0.16797zm-60.52 7.0332c-0.15199 0.34799-0.30122 0.70508-0.44922 1.0664-0.056 0.13733-0.11588 0.26625-0.17188 0.40625-0.10666 0.27066-0.21045 0.55728-0.31445 0.83594-0.12266 0.32399-0.24976 0.63924-0.3711 0.97656-1.6893 4.7252-2.5117 8.8752-2.5117 12.896 0 0.55598 0.123 1.1043 0.15234 1.6562 0.18133-0.072 0.36145-0.14728 0.55078-0.22461 0.27999-0.11333 0.50356-0.20361 0.79688-0.32227 0.136-0.0533 0.26777-0.10683 0.39843-0.16016 0.49865-4.8092 1.5774-9.9021 3.1094-14.943-0.39599-0.72665-0.79881-1.4528-1.1894-2.1875zm259.33 11.988c6.1378 0 10.572 2.3283 12.141 6.3496l3.6758-5.3965h9.7363l-23.652 34.5c-1.9176 2.7514-3.0369 4.5504-3.6777 5.8203-1.6021 3.1748-0.34431 5.7129 2.7246 5.7129 2.5398-2e-5 6.303-1.5872 9.7012-4.127l1.207 2.2227c-5.5244 4.6563-14.112 8.2539-19.615 8.2539-2.8573 0-5.075-1.269-5.7012-3.1738-0.57273-2.0107-0.07981-5.5035 1.1484-7.9375 0.16021-0.31747 0.48129-0.95258 0.96094-1.6934-10.888 8.7835-19.584 12.805-27.838 12.805-10.9 0-14.252-7.8296-8.3242-19.576 9.1318-18.096 31.111-33.76 47.514-33.76zm75.998 0c10.265 0 13.297 7.6194 7.4766 19.154-9.1318 18.096-31.005 34.182-46.35 34.182-6.032 0-10.306-2.4327-11.715-6.7715l-11.721 17.143c-0.37284 0.52912-1.2792 2.117-1.5996 2.752-0.05234 0.10373-0.07708 0.1926-0.12304 0.29297l-10.512 0.05664c0.84752-0.88677 1.6704-1.9058 2.498-3.1016l33.828-49.209c0.58644-0.95242 1.1711-1.9038 1.5449-2.6445 1.5487-3.0689 0.71023-4.5502-3.5723-5.291l-1.0586-0.21289 2.0781-3.0684c7.4107-0.63495 9.264-0.9524 15.99-2.3281h4.0215l-9.6426 14.074c8.7732-9.2068 19.966-15.027 28.855-15.027zm58.479 0c9.9476 0 14.899 4.8685 11.588 11.43-3.2575 6.4553-12.382 11.746-25.518 14.709-7.5214 1.6932-14.405 2.5408-25.414 3.1758-1.2243 1.5874-1.8103 2.5406-2.4512 3.8106-4.5926 9.101-1.9168 13.861 7.6074 13.861 6.2437-2e-5 11.65-1.4806 23.367-6.666l1.3086 2.8574c-12.042 6.667-22.906 10.158-31.16 10.158-13.122 0-18.585-8.4658-12.871-19.789 8.9182-17.673 34.283-33.547 53.543-33.547zm-4.1973 3.916c-5.1854 0-11.071 2.4352-17.812 7.1973-5.5215 4.0214-9.0829 7.5124-14.617 14.285h1.377c4.1272 0 12.386-1.0579 18.16-2.4336 8.8457-2.0107 15.796-6.3501 18.359-11.43 2.2429-4.4446 0.03611-7.6191-5.4668-7.6191zm-130.46 1.0586c-6.4553 0-14.144 3.703-22.113 10.688-6.1099 5.3971-12.869 13.969-16.287 20.742-3.5779 7.0903-2.1196 11.959 3.8066 11.959 5.7146 0 14.518-4.2329 21.584-10.477 6.8536-6.032 11.961-12.17 22.242-27.092-1.6736-4.233-4.2586-5.8203-9.2324-5.8203zm71.764 0c-4.9738 0-11.707 3.0681-18.504 8.3594-4.0894 3.2806-8.9805 8.1489-13.025 13.229-1.5962 1.9048-4.0458 5.2908-9.584 12.91l-2.0762 2.8574c0.77557 3.9156 3.9399 6.0332 9.0195 6.0332 5.5029 0 12.131-3.069 18.982-8.6777 6.8517-5.6087 14.569-15.239 18.574-23.176 3.4712-6.8786 2.1162-11.535-3.3867-11.535zm-266.68 47.965c0.46266 0.30399 0.90676 0.59978 1.3574 0.89844 2.1133 1.3946 4.1079 2.6977 5.9785 3.9043 0.41066 0.264 0.81751 0.52464 1.2148 0.7793 7.1412 4.5786 12.419 7.7023 15.814 9.3516 0.11066 0.0533 0.22457 0.09773 0.3379 0.15235 0.63731 0.308 1.2811 0.59348 1.9277 0.88281 1.8466 0.82398 3.72 1.5608 5.6133 2.2168 2.9946 1.0413 6.0444 1.8923 9.1523 2.5176h0.00586c0.52265 0.104 1.0534 0.18402 1.5801 0.27735 2.7133 0.48133 5.469 0.81381 8.2676 0.98047 0.24133 0.016 0.48133 0.044 0.72266 0.05468 0.80932 0.0413 1.5907 0.07796 2.3613 0.11133 1.3626 0.06 2.6649 0.11102 3.9102 0.15235 6.7838 0.21999 11.764 0.13603 14.92-0.25196 4.5452-0.58798 7.285-0.86112 8.2383-0.81445 1.7746 0.0893 3.2926 0.51957 4.5606 1.2969 1.6146 1.028 2.7752 1.6221 3.4766 1.7754-2.056 0.58399-4.4179 1.2673-7.0352 2.0312h-0.00391c-1.6653 0.48799-3.4498 1.0103-5.3418 1.5703-0.91198 0.26799-1.8478 0.54475-2.8144 0.83008-1.9013 0.56399-3.8895 1.1552-5.9961 1.7832-0.40533 0.12-0.8302 0.24514-1.2422 0.36914-0.94531 0.28399-1.8897 0.56534-2.875 0.86133-0.41865 0.128-1.7969 0.64051-4.1328 1.5352-0.55998 0.21599-1.1991 0.46266-1.8711 0.72266-0.93597 0.36132-1.9679 0.76037-3.1172 1.207-0.37199 0.14533-0.77269 0.2998-1.166 0.45313-1.2466 0.48399-2.5919 1.0093-4.0625 1.584-5.0052 1.956-11.291 4.4235-18.893 7.4141-0.11333-0.11733-0.40258-0.30155-0.86523-0.54687l-1.7774-0.08984c-6.6292-0.33332-11.652 1.547-15.062 5.6308-1.2133-4.2172-3.0865-8.2888-5.6211-12.221-2.6706-3.5759-5.3371-7.1513-8.0117-10.729-0.0347-0.12667-0.06885-0.247-0.10351-0.375-0.22666-0.81065-0.44302-1.5973-0.65235-2.3652-0.31199-1.1333-0.60673-2.2121-0.88672-3.248-0.55465-2.0626-1.0466-3.9346-1.4746-5.6172-1.04-4.0879-1.708-7.0621-2-8.9141-0.0133-0.08401-0.02566-0.16876-0.03906-0.2461-0.064-0.44665-0.10766-0.82039-0.125-1.123-0.0107-0.17599-0.01451-0.3356-0.00781-0.46093 0.58132-0.25599 1.2182-0.59586 1.8809-0.97852 0.84264-0.48665 1.7487-1.0717 2.7207-1.7637 0.18133-0.13333 0.35497-0.24939 0.54297-0.38672l0.59375-1.2129zm-0.71289 4.7988c-0.22133 0.14533-0.43573 0.28597-0.65039 0.41797-0.44666 0.27999-0.88398 0.54268-1.3066 0.77734 0.20666 1.216 0.6478 3.3137 1.5371 6.8789 0.0787 0.31999 0.16395 0.65795 0.25195 1.002 0.0987 0.38665 0.2006 0.78971 0.30859 1.207 0.41599 1.6186 0.90439 3.4799 1.4844 5.6172h29.703c-1.344-0.47865-2.6782-0.99079-3.9941-1.5508-1.1906-0.50265-2.3685-1.0355-3.5352-1.6035-1.2853-0.62532-2.8237-1.4496-4.5996-2.4629-2.7106-1.5466-5.9986-3.5508-9.8945-6.0254-2.0306-1.292-4.2266-2.7098-6.5879-4.2578h-2.7168zm3.6016 21.51c1.9266 2.5813 7.0527 9.4453 7.0527 9.4453l0.05468 0.08203c0.68132 1.0546 1.3001 2.1289 1.8867 3.2129 0.98664 1.8146 1.8609 3.6587 2.6035 5.5293 1.1826-0.82398 2.4787-1.4926 3.8613-2.0312 2.9079-1.1346 6.2446-1.6399 10.035-1.4492l1.7754 0.08984 0.53711-0.13281s0.2962 0.20384 0.49219 0.33984c5.6052-2.2053 10.219-4.0171 14.035-5.5117-6.3305-3.5599-13.66-6.105-20.082-9.5742h-22.252zm34.748 0c3.8452 1.9066 7.6611 3.846 11.264 6.002 0.81998 0.38532 1.6487 0.77793 2.4727 1.1699 1.2066-0.47199 2.289-0.89221 3.2637-1.2695-2.2373-1.2626-4.2959-2.7098-6.0332-4.4844 2.3493 1.2613 4.9474 2.5723 7.666 3.8496 5.1132-1.9773 6.5455-2.4946 7.0215-2.6426 0 0 0.09438-0.02706 0.23437-0.06836-0.50399-0.28933-1.0064-0.57981-1.5117-0.86914 0.75198 0.212 1.4749 0.43703 2.1562 0.67969 0.96797-0.284 2.6725-0.78646 4.7578-1.3984-1.076-0.31466-2.1452-0.63276-3.2012-0.96875h-28.09zm80.436 0c0.31733 2.7866 0.53487 4.5943 0.68554 5.7676 10.56-1.0306 21.731-3.321 32.209-5.7676h-11.268c-4.1012 0.86665-8.2154 1.6718-12.254 2.3691 2.7239-0.77998 5.5597-1.5758 8.4316-2.3691h-17.805zm36.914 0.00196c-11.321 3.1479-23.316 5.8228-36.145 6.4375 0.0347 0.25066 0.06389 0.46143 0.08789 0.63476 0.51065 0.50932 1.0109 1.0084 1.5176 1.5137 24.715 1.5893 52.897 5.9257 67.799-8.5859h-33.26zm39.939 0c-19.65 10.257-41.353 18.144-63.043 19.686 1.9866 1.8773 3.9469 3.702 5.8828 5.4727 7.4265-1.0746 14.537-2.6406 20.559-4.2539 17.35-4.6599 32.706-13.287 46.77-20.904h-10.168zm15.689 0c-6.4652 4.4532-12.901 8.2072-17.947 7.5898-1.076 2.1706 0.46774 2.695-0.82422 3.459-2.7426-2.272-3.2017 0.80128-5.1523 1.7812-11.064 5.5465-30.49 11.888-46.279 14.736 4.6906 4.2239 9.2194 8.1266 13.586 11.701 9.0504-2.0919 18.061-4.2187 26.293-7.1133-7.3705 3.6866-15.863 6.2744-25.398 7.8438 7.6691 6.2318 14.833 11.446 21.479 15.637 15.789-4.0332 30.513-9.2141 47.1-17.061-13.054 7.6652-28.062 14.184-44.916 18.412 1.656 1.0066 3.2779 1.9458 4.8672 2.8164 0.20799-0.032 0.41383-0.06621 0.61915-0.09961-0.012 8e-3 -0.02697 0.01665-0.04297 0.02735 1.02-0.28933 2.0367-0.5743 3.0566-0.87696 2.6546-2.2106 8.2979-2.9721 12.451-4.4961 5.4799-2.008 10.972-4.6752 15.449-6.2031-0.49466 0.36532-1.0457 0.67503-1.5684 1.0137 0.91197-0.40132 1.8277-0.81128 2.7344-1.2246 3.4386-2.4359 7.3347-4.4301 11.697-5.9688-0.36 0.28399-0.74015 0.5437-1.1055 0.81836 1.2333-0.63865 2.4566-1.2899 3.6699-1.9512 3.9359-4.4812 14.55-7.9526 18.826-13.758-0.56399 1.576-1.7787 3.062-3.3613 4.4727 14.405-9.5491 26.504-20.36 34.693-31.557h-6.8203c-1.8306 1.924-3.6953 3.7735-5.6152 5.4961-11.557 12.493-27.083 23.84-42.047 33.053-1.2253-3.1906 3.9504-3.1149 5.9863-4.3789 9.8078-6.0905 19.539-14.199 28.492-22.762-0.75598 0.51066-1.5053 1.0288-2.2812 1.4941 3.6252-3.2092 11.474-9.4318 12.01-12.902h-0.57422c-1.1773 2.3279-2.8044 4.2215-5.4883 5.0762-1.1626-2.1453 3.3761-2.733 0.82421-3.457-1.8173 2.6933-2.8506 2.2964-0.80664 5.1816-6.6585 1.144-10.882 7.2846-19.693 12.287 6.8638-6.2385 12.876-13.305 20.205-19.088h-54.117zm28.816 0.46289c-1.036 0.95065-4.6294 4.1979 0.03711 3.4473-1.748 3.1199-6.3891 3.4114-9.4277 5.2754 0.60931-1.9853 6.4307-6.2027 9.3906-8.7226zm-83.945 2.4824c0.4674 0.03517 0.31751 0.34916-0.82813 1.1191-3.7786-0.54665-7.0865 3.0837-9.7891 1.2891 2.2609-0.112 9.215-2.5137 10.617-2.4082zm45.111 20.41c0.6029-0.01744 0.55757 0.44533-0.55274 1.6816-4.6972 0.23999-6.4746 3.3349-11.172 3.5723 2.2669-0.82198 9.9159-5.2016 11.725-5.2539zm-102.54 5.123c0.42799 0.55599 0.91723 1.1727 1.4492 1.834 1.8333 2.2746 4.2871 5.1574 7.375 8.668 3.9866 4.5359 10.282 8.6219 18.889 12.258 12.562 5.2585 19.473 8.2807 20.742 9.0566 0.64931 0.36665 1.3854 0.78105 2.1934 1.2344 0.0947 0.0547 0.19174 0.10683 0.28907 0.16016 1.8773 1.0533 4.1738 2.3335 6.8711 3.8281 1.0413 0.57732 2.127 1.1809 3.291 1.8262-10.388-0.52265-18.878-1.5832-25.502-3.1738-2.4093-0.57999-4.5816-1.226-6.4922-1.9473-0.67732-0.25199-1.3177-0.5184-1.9297-0.78906-1.5866-0.70532-2.9661-1.4638-4.1367-2.2852-1.8293-1.4066-4.6314-3.4653-8.418-6.1719-1.2586-0.89731-3.1903-1.4149-5.7969-1.5469-11.726-0.58532-24.743-2.6577-39.051-6.2109 11.006-7.1558 20.293-12.391 27.895-15.74 0.78932-0.34666 1.5787-0.69334 2.332-1zm-0.89844 3.543c-6.1012 2.6693-13.429 6.6564-21.871 11.904 11.445 2.5279 22.128 4.1111 31.738 4.5938 3.1999 0.16 5.6018 0.84064 7.3418 2.0859l8.4043 6.1602c3.0786 2.1586 7.8862 3.8864 14.334 5.1797 0.71065-1e-3 1.4224-0.00809 2.125-0.02539-0.57997 0.04-1.157 0.06953-1.7344 0.10156 2.5839 0.50665 5.4183 0.94708 8.5195 1.3164-0.61199-0.34133-1.0094-0.56427-1.0254-0.57227-0.0667-0.0387-0.16928-0.09898-0.33594-0.18164-0.084-0.044-0.18468-0.09564-0.30468-0.1543-1.4826 0.46932-3.6984 0.56773-4.2598-0.51757 0.26133-0.60665 0.62264-0.87613 1.0293-0.9668-0.0667-0.0307-0.12989-0.05859-0.19922-0.08789-0.0133-5e-3 -0.02316-0.01358-0.03516-0.01758-0.35332-0.15733-0.73449-0.32392-1.1465-0.50391-0.0867-0.0373-0.17886-0.08047-0.26953-0.11914-0.45065-0.19599-0.93696-0.41004-1.4609-0.63672-0.61866-0.26799-1.2908-0.55776-2.0215-0.87109-0.10266-0.044-0.20779-0.08878-0.31445-0.13281-2.7786-1.192-6.3708-2.7148-11.025-4.6641l-0.00976-0.00391c-8.9678-3.7892-15.675-8.1658-19.938-13.014-3.2119-3.6519-5.6837-6.5611-7.541-8.873z" fill="#fff" stroke-width="1.3333"/><text transform="skewX(-26.777)" x="404.6308" y="437.19476" display="none" fill="#000000" font-family="'URW Bookman L'" font-size="105.82px" font-style="italic" letter-spacing="0px" stroke-width="2.6456" word-spacing="0px" style="font-variant-caps:normal;font-variant-east-asian:normal;font-variant-ligatures:normal;font-variant-numeric:normal;line-height:1.25" xml:space="preserve"><tspan x="0" y="0" fill="#ffffff" font-family="'URW Bookman L'" font-size="105.82px" font-style="italic" stroke-width="2.6456" style="font-variant-caps:normal;font-variant-east-asian:normal;font-variant-ligatures:normal;font-variant-numeric:normal">Shape</tspan></text></svg>
